<?xml version="1.0" encoding="UTF-8" standalone="no"?>
<!DOCTYPE svg PUBLIC "-//W3C//DTD SVG 1.1//EN"
 "http://www.w3.org/Graphics/SVG/1.1/DTD/svg11.dtd">
<!-- Generated by graphviz version 2.43.0 (0)
 -->
<!-- Title: IOv2::cin_t Pages: 1 -->
<svg width="945pt" height="369pt"
 viewBox="0.00 0.00 945.00 369.00" xmlns="http://www.w3.org/2000/svg" xmlns:xlink="http://www.w3.org/1999/xlink">
<g id="graph0" class="graph" transform="scale(1 1) rotate(0) translate(4 365)">
<title>IOv2::cin_t</title>
<!-- Node1 -->
<g id="Node000001" class="node">
<title>Node1</title>
<g id="a_Node000001"><a xlink:title="cin">
<polygon fill="#999999" stroke="#666666" points="937,-119.5 869,-119.5 869,-100.5 937,-100.5 937,-119.5"/>
<text text-anchor="middle" x="903" y="-107.5" font-family="Helvetica,sans-Serif" font-size="10.00">IOv2::cin_t</text>
</a>
</g>
</g>
<!-- Node2 -->
<g id="Node000002" class="node">
<title>Node2</title>
<g id="a_Node000002"><a xlink:href="classIOv2_1_1stdin__api.html" target="_top" xlink:title=" ">
<polygon fill="white" stroke="#666666" points="823.5,-166.5 698.5,-166.5 698.5,-125.5 823.5,-125.5 823.5,-166.5"/>
<text text-anchor="start" x="706.5" y="-154.5" font-family="Helvetica,sans-Serif" font-size="10.00">IOv2::stdin_api&lt; cin</text>
<text text-anchor="start" x="706.5" y="-143.5" font-family="Helvetica,sans-Serif" font-size="10.00">_t, std_device&lt; STDIN</text>
<text text-anchor="middle" x="761" y="-132.5" font-family="Helvetica,sans-Serif" font-size="10.00">_FILENO &gt;, char &gt;</text>
</a>
</g>
</g>
<!-- Node2&#45;&gt;Node1 -->
<g id="edge1_Node000001_Node000002" class="edge">
<title>Node2&#45;&gt;Node1</title>
<g id="a_edge1_Node000001_Node000002"><a xlink:title=" ">
<path fill="none" stroke="#63b8ff" d="M833.68,-127.57C846.01,-124.4 858.27,-121.25 868.92,-118.51"/>
<polygon fill="#63b8ff" stroke="#63b8ff" points="832.63,-124.22 823.81,-130.11 834.37,-131 832.63,-124.22"/>
</a>
</g>
</g>
<!-- Node3 -->
<g id="Node000003" class="node">
<title>Node3</title>
<g id="a_Node000003"><a xlink:href="structIOv2_1_1ios__state.html" target="_top" xlink:title="Component that adds the stream state bits and their associated exceptions on top of the formatting st...">
<polygon fill="white" stroke="#666666" points="557,-259.5 417,-259.5 417,-240.5 557,-240.5 557,-259.5"/>
<text text-anchor="middle" x="487" y="-247.5" font-family="Helvetica,sans-Serif" font-size="10.00">IOv2::ios_state&lt; TChar &gt;</text>
</a>
</g>
</g>
<!-- Node3&#45;&gt;Node2 -->
<g id="edge2_Node000002_Node000003" class="edge">
<title>Node3&#45;&gt;Node2</title>
<g id="a_edge2_Node000002_Node000003"><a xlink:title=" ">
<path fill="none" stroke="#63b8ff" d="M534.46,-237.71C542.02,-235.57 549.75,-233.29 557,-231 608.75,-214.67 622.09,-211.28 672,-190 688.5,-182.97 706.27,-174.3 721.49,-166.52"/>
<polygon fill="#63b8ff" stroke="#63b8ff" points="533.37,-234.38 524.67,-240.44 535.25,-241.13 533.37,-234.38"/>
</a>
</g>
</g>
<!-- Node4 -->
<g id="Node000004" class="node">
<title>Node4</title>
<g id="a_Node000004"><a xlink:href="classIOv2_1_1ios__base.html" target="_top" xlink:title="Base class holding the formatting state of every stream.">
<polygon fill="white" stroke="#666666" points="380,-259.5 242,-259.5 242,-240.5 380,-240.5 380,-259.5"/>
<text text-anchor="middle" x="311" y="-247.5" font-family="Helvetica,sans-Serif" font-size="10.00">IOv2::ios_base&lt; TChar &gt;</text>
</a>
</g>
</g>
<!-- Node4&#45;&gt;Node3 -->
<g id="edge3_Node000003_Node000004" class="edge">
<title>Node4&#45;&gt;Node3</title>
<g id="a_edge3_Node000003_Node000004"><a xlink:title=" ">
<path fill="none" stroke="#63b8ff" d="M390.49,-250C399.26,-250 408.14,-250 416.78,-250"/>
<polygon fill="#63b8ff" stroke="#63b8ff" points="390.27,-246.5 380.27,-250 390.27,-253.5 390.27,-246.5"/>
</a>
</g>
</g>
<!-- Node5 -->
<g id="Node000005" class="node">
<title>Node5</title>
<g id="a_Node000005"><a xlink:href="classIOv2_1_1copyable__atomic.html" target="_top" xlink:title=" ">
<polygon fill="white" stroke="#666666" points="135,-361 7,-361 7,-331 135,-331 135,-361"/>
<text text-anchor="start" x="15" y="-349" font-family="Helvetica,sans-Serif" font-size="10.00">IOv2::copyable_atomic</text>
<text text-anchor="middle" x="71" y="-338" font-family="Helvetica,sans-Serif" font-size="10.00">&lt; std::uint16_t &gt;</text>
</a>
</g>
</g>
<!-- Node5&#45;&gt;Node4 -->
<g id="edge4_Node000004_Node000005" class="edge">
<title>Node5&#45;&gt;Node4</title>
<g id="a_edge4_Node000004_Node000005"><a xlink:title=" ">
<path fill="none" stroke="#9a32cd" stroke-dasharray="5,2" d="M131.72,-327.76C160.05,-318.56 194.14,-306.67 224,-294 248.7,-283.52 276.12,-268.95 293.21,-259.5"/>
<polygon fill="#9a32cd" stroke="#9a32cd" points="130.41,-324.51 121.96,-330.9 132.55,-331.17 130.41,-324.51"/>
</a>
</g>
<text text-anchor="middle" x="192" y="-320" font-family="Helvetica,sans-Serif" font-size="10.00" fill="grey"> m_flags</text>
</g>
<!-- Node6 -->
<g id="Node000006" class="node">
<title>Node6</title>
<g id="a_Node000006"><a xlink:href="classIOv2_1_1copyable__atomic.html" target="_top" xlink:title=" ">
<polygon fill="white" stroke="#666666" points="135,-313 7,-313 7,-283 135,-283 135,-313"/>
<text text-anchor="start" x="15" y="-301" font-family="Helvetica,sans-Serif" font-size="10.00">IOv2::copyable_atomic</text>
<text text-anchor="middle" x="71" y="-290" font-family="Helvetica,sans-Serif" font-size="10.00">&lt; std::uint8_t &gt;</text>
</a>
</g>
</g>
<!-- Node6&#45;&gt;Node4 -->
<g id="edge5_Node000004_Node000006" class="edge">
<title>Node6&#45;&gt;Node4</title>
<g id="a_edge5_Node000004_Node000006"><a xlink:title=" ">
<path fill="none" stroke="#9a32cd" stroke-dasharray="5,2" d="M145.22,-283.23C183.5,-275.51 229.23,-266.29 262.79,-259.52"/>
<polygon fill="#9a32cd" stroke="#9a32cd" points="144.27,-279.85 135.15,-285.26 145.65,-286.72 144.27,-279.85"/>
</a>
</g>
<text text-anchor="middle" x="192" y="-282" font-family="Helvetica,sans-Serif" font-size="10.00" fill="grey"> m_precision</text>
</g>
<!-- Node7 -->
<g id="Node000007" class="node">
<title>Node7</title>
<g id="a_Node000007"><a xlink:href="classIOv2_1_1copyable__atomic.html" target="_top" xlink:title=" ">
<polygon fill="white" stroke="#666666" points="135,-265 7,-265 7,-235 135,-235 135,-265"/>
<text text-anchor="start" x="15" y="-253" font-family="Helvetica,sans-Serif" font-size="10.00">IOv2::copyable_atomic</text>
<text text-anchor="middle" x="71" y="-242" font-family="Helvetica,sans-Serif" font-size="10.00">&lt; std::size_t &gt;</text>
</a>
</g>
</g>
<!-- Node7&#45;&gt;Node4 -->
<g id="edge6_Node000004_Node000007" class="edge">
<title>Node7&#45;&gt;Node4</title>
<g id="a_edge6_Node000004_Node000007"><a xlink:title=" ">
<path fill="none" stroke="#9a32cd" stroke-dasharray="5,2" d="M145.4,-250C176.18,-250 211.77,-250 241.95,-250"/>
<polygon fill="#9a32cd" stroke="#9a32cd" points="145.15,-246.5 135.15,-250 145.15,-253.5 145.15,-246.5"/>
</a>
</g>
<text text-anchor="middle" x="192" y="-253" font-family="Helvetica,sans-Serif" font-size="10.00" fill="grey"> m_width</text>
</g>
<!-- Node8 -->
<g id="Node000008" class="node">
<title>Node8</title>
<g id="a_Node000008"><a xlink:href="classIOv2_1_1copyable__atomic.html" target="_top" xlink:title=" ">
<polygon fill="white" stroke="#666666" points="135,-217 7,-217 7,-187 135,-187 135,-217"/>
<text text-anchor="start" x="15" y="-205" font-family="Helvetica,sans-Serif" font-size="10.00">IOv2::copyable_atomic</text>
<text text-anchor="middle" x="71" y="-194" font-family="Helvetica,sans-Serif" font-size="10.00">&lt; TChar &gt;</text>
</a>
</g>
</g>
<!-- Node8&#45;&gt;Node4 -->
<g id="edge7_Node000004_Node000008" class="edge">
<title>Node8&#45;&gt;Node4</title>
<g id="a_edge7_Node000004_Node000008"><a xlink:title=" ">
<path fill="none" stroke="#9a32cd" stroke-dasharray="5,2" d="M145.22,-216.77C183.5,-224.49 229.23,-233.71 262.79,-240.48"/>
<polygon fill="#9a32cd" stroke="#9a32cd" points="145.65,-213.28 135.15,-214.74 144.27,-220.15 145.65,-213.28"/>
</a>
</g>
<text text-anchor="middle" x="192" y="-234" font-family="Helvetica,sans-Serif" font-size="10.00" fill="grey"> m_fill</text>
</g>
<!-- Node9 -->
<g id="Node000009" class="node">
<title>Node9</title>
<g id="a_Node000009"><a xlink:href="classIOv2_1_1copyable__mutex.html" target="_top" xlink:title=" ">
<polygon fill="white" stroke="#666666" points="142,-169 0,-169 0,-139 142,-139 142,-169"/>
<text text-anchor="start" x="8" y="-157" font-family="Helvetica,sans-Serif" font-size="10.00">IOv2::copyable_mutex</text>
<text text-anchor="middle" x="71" y="-146" font-family="Helvetica,sans-Serif" font-size="10.00">&lt; std::recursive_mutex &gt;</text>
</a>
</g>
</g>
<!-- Node9&#45;&gt;Node4 -->
<g id="edge8_Node000004_Node000009" class="edge">
<title>Node9&#45;&gt;Node4</title>
<g id="a_edge8_Node000004_Node000009"><a xlink:title=" ">
<path fill="none" stroke="#9a32cd" stroke-dasharray="5,2" d="M133.11,-172.07C161.18,-180.98 194.68,-192.5 224,-205 248.96,-215.64 276.54,-230.69 293.57,-240.4"/>
<polygon fill="#9a32cd" stroke="#9a32cd" points="134.01,-168.68 123.42,-169.02 131.91,-175.36 134.01,-168.68"/>
</a>
</g>
<text text-anchor="middle" x="192" y="-208" font-family="Helvetica,sans-Serif" font-size="10.00" fill="grey"> m_io_mutex</text>
</g>
<!-- Node10 -->
<g id="Node000010" class="node">
<title>Node10</title>
<g id="a_Node000010"><a xlink:href="structIOv2_1_1istream__operators.html" target="_top" xlink:title="Mix&#45;in base that provides the various extraction operations for input streams.">
<polygon fill="white" stroke="#666666" points="554,-222 420,-222 420,-192 554,-192 554,-222"/>
<text text-anchor="start" x="428" y="-210" font-family="Helvetica,sans-Serif" font-size="10.00">IOv2::istream_operators</text>
<text text-anchor="middle" x="487" y="-199" font-family="Helvetica,sans-Serif" font-size="10.00">&lt; TChar &gt;</text>
</a>
</g>
</g>
<!-- Node10&#45;&gt;Node2 -->
<g id="edge9_Node000002_Node000010" class="edge">
<title>Node10&#45;&gt;Node2</title>
<g id="a_edge9_Node000002_Node000010"><a xlink:title=" ">
<path fill="none" stroke="#63b8ff" d="M564.1,-190.12C597.25,-182.75 636.55,-173.98 672,-166 680.56,-164.07 689.59,-162.03 698.46,-160.02"/>
<polygon fill="#63b8ff" stroke="#63b8ff" points="563.02,-186.77 554.02,-192.36 564.54,-193.61 563.02,-186.77"/>
</a>
</g>
</g>
<!-- Node11 -->
<g id="Node000011" class="node">
<title>Node11</title>
<g id="a_Node000011"><a xlink:href="structIOv2_1_1stream__common__operators.html" target="_top" xlink:title="Mix&#45;in base that provides operations common to input and output streams.">
<polygon fill="white" stroke="#666666" points="551,-174 423,-174 423,-144 551,-144 551,-174"/>
<text text-anchor="start" x="431" y="-162" font-family="Helvetica,sans-Serif" font-size="10.00">IOv2::stream_common</text>
<text text-anchor="middle" x="487" y="-151" font-family="Helvetica,sans-Serif" font-size="10.00">_operators</text>
</a>
</g>
</g>
<!-- Node11&#45;&gt;Node2 -->
<g id="edge10_Node000002_Node000011" class="edge">
<title>Node11&#45;&gt;Node2</title>
<g id="a_edge10_Node000002_Node000011"><a xlink:title=" ">
<path fill="none" stroke="#63b8ff" d="M561.17,-155.5C604,-153.46 657.49,-150.9 698.19,-148.95"/>
<polygon fill="#63b8ff" stroke="#63b8ff" points="560.91,-152.01 551.09,-155.98 561.24,-159 560.91,-152.01"/>
</a>
</g>
</g>
<!-- Node12 -->
<g id="Node000012" class="node">
<title>Node12</title>
<g id="a_Node000012"><a xlink:href="structIOv2_1_1ichannel.html" target="_top" xlink:title=" ">
<polygon fill="white" stroke="#666666" points="552,-126 422,-126 422,-96 552,-96 552,-126"/>
<text text-anchor="start" x="430" y="-114" font-family="Helvetica,sans-Serif" font-size="10.00">IOv2::ichannel&lt; device</text>
<text text-anchor="middle" x="487" y="-103" font-family="Helvetica,sans-Serif" font-size="10.00">_type, char_type &gt;</text>
</a>
</g>
</g>
<!-- Node12&#45;&gt;Node2 -->
<g id="edge11_Node000002_Node000012" class="edge">
<title>Node12&#45;&gt;Node2</title>
<g id="a_edge11_Node000002_Node000012"><a xlink:title=" ">
<path fill="none" stroke="#9a32cd" stroke-dasharray="5,2" d="M562.16,-120.54C604.82,-126.03 657.8,-132.85 698.19,-138.05"/>
<polygon fill="#9a32cd" stroke="#9a32cd" points="562.48,-117.06 552.12,-119.25 561.59,-124 562.48,-117.06"/>
</a>
</g>
<text text-anchor="middle" x="623.5" y="-137" font-family="Helvetica,sans-Serif" font-size="10.00" fill="grey"> m_channel</text>
</g>
<!-- Node13 -->
<g id="Node000013" class="node">
<title>Node13</title>
<g id="a_Node000013"><a xlink:href="classIOv2_1_1base__channel.html" target="_top" xlink:title="Common implementation base class for channels.">
<polygon fill="white" stroke="#666666" points="375,-131.5 247,-131.5 247,-90.5 375,-90.5 375,-131.5"/>
<text text-anchor="start" x="255" y="-119.5" font-family="Helvetica,sans-Serif" font-size="10.00">IOv2::base_channel</text>
<text text-anchor="start" x="255" y="-108.5" font-family="Helvetica,sans-Serif" font-size="10.00">&lt; TDevice, TChar, IsIn,</text>
<text text-anchor="middle" x="311" y="-97.5" font-family="Helvetica,sans-Serif" font-size="10.00"> IsOut &gt;</text>
</a>
</g>
</g>
<!-- Node13&#45;&gt;Node12 -->
<g id="edge12_Node000012_Node000013" class="edge">
<title>Node13&#45;&gt;Node12</title>
<g id="a_edge12_Node000012_Node000013"><a xlink:title=" ">
<path fill="none" stroke="#63b8ff" d="M385.39,-111C397.51,-111 409.99,-111 421.86,-111"/>
<polygon fill="#63b8ff" stroke="#63b8ff" points="385.31,-107.5 375.31,-111 385.31,-114.5 385.31,-107.5"/>
</a>
</g>
</g>
<!-- Node14 -->
<g id="Node000014" class="node">
<title>Node14</title>
<g id="a_Node000014"><a xlink:href="classIOv2_1_1locale.html" target="_top" xlink:title=" ">
<polygon fill="white" stroke="#666666" points="540.5,-78 433.5,-78 433.5,-48 540.5,-48 540.5,-78"/>
<text text-anchor="start" x="441.5" y="-66" font-family="Helvetica,sans-Serif" font-size="10.00">IOv2::locale&lt; char</text>
<text text-anchor="middle" x="487" y="-55" font-family="Helvetica,sans-Serif" font-size="10.00">_type &gt;</text>
</a>
</g>
</g>
<!-- Node14&#45;&gt;Node2 -->
<g id="edge13_Node000002_Node000014" class="edge">
<title>Node14&#45;&gt;Node2</title>
<g id="a_edge13_Node000002_Node000014"><a xlink:title=" ">
<path fill="none" stroke="#9a32cd" stroke-dasharray="5,2" d="M550.54,-75.39C586.52,-83.23 632.32,-94.45 672,-108 680.28,-110.83 681.98,-112.5 690,-116 697.03,-119.07 704.47,-122.29 711.76,-125.43"/>
<polygon fill="#9a32cd" stroke="#9a32cd" points="551.17,-71.95 540.66,-73.27 549.7,-78.79 551.17,-71.95"/>
</a>
</g>
<text text-anchor="middle" x="623.5" y="-111" font-family="Helvetica,sans-Serif" font-size="10.00" fill="grey"> m_locale</text>
</g>
<!-- Node15 -->
<g id="Node000015" class="node">
<title>Node15</title>
<g id="a_Node000015"><a xlink:href="classIOv2_1_1copyable__atomic.html" target="_top" xlink:title=" ">
<polygon fill="white" stroke="#666666" points="551,-30 423,-30 423,0 551,0 551,-30"/>
<text text-anchor="start" x="431" y="-18" font-family="Helvetica,sans-Serif" font-size="10.00">IOv2::copyable_atomic</text>
<text text-anchor="middle" x="487" y="-7" font-family="Helvetica,sans-Serif" font-size="10.00">&lt; bool &gt;</text>
</a>
</g>
</g>
<!-- Node15&#45;&gt;Node2 -->
<g id="edge14_Node000002_Node000015" class="edge">
<title>Node15&#45;&gt;Node2</title>
<g id="a_edge14_Node000002_Node000015"><a xlink:title=" ">
<path fill="none" stroke="#9a32cd" stroke-dasharray="5,2" d="M561.6,-20.13C598.76,-26.28 642.17,-39.37 672,-67 689.02,-82.77 674.03,-99.17 690,-116 693.37,-119.55 697.22,-122.7 701.36,-125.49"/>
<polygon fill="#9a32cd" stroke="#9a32cd" points="561.71,-16.61 551.3,-18.58 560.67,-23.53 561.71,-16.61"/>
</a>
</g>
<text text-anchor="middle" x="623.5" y="-70" font-family="Helvetica,sans-Serif" font-size="10.00" fill="grey"> m_sync_with_stdio</text>
</g>
<!-- Node16 -->
<g id="Node000016" class="node">
<title>Node16</title>
<g id="a_Node000016"><a xlink:href="classIOv2_1_1sing__temp.html" target="_top" xlink:title=" ">
<polygon fill="white" stroke="#666666" points="832,-107.5 690,-107.5 690,-88.5 832,-88.5 832,-107.5"/>
<text text-anchor="middle" x="761" y="-95.5" font-family="Helvetica,sans-Serif" font-size="10.00">IOv2::sing_temp&lt; cin_t &gt;</text>
</a>
</g>
</g>
<!-- Node16&#45;&gt;Node1 -->
<g id="edge15_Node000001_Node000016" class="edge">
<title>Node16&#45;&gt;Node1</title>
<g id="a_edge15_Node000001_Node000016"><a xlink:title=" ">
<path fill="none" stroke="#63b8ff" d="M842.47,-104.9C851.68,-105.69 860.64,-106.45 868.69,-107.15"/>
<polygon fill="#63b8ff" stroke="#63b8ff" points="842.67,-101.4 832.41,-104.04 842.07,-108.38 842.67,-101.4"/>
</a>
</g>
</g>
</g>
</svg>
