<?xml version="1.0" encoding="UTF-8" standalone="no"?>
<!DOCTYPE svg PUBLIC "-//W3C//DTD SVG 1.1//EN"
 "http://www.w3.org/Graphics/SVG/1.1/DTD/svg11.dtd">
<!-- Generated by graphviz version 2.43.0 (0)
 -->
<!-- Title: IOv2::iostream&lt; TDevice, TChar &gt; Pages: 1 -->
<svg width="512pt" height="221pt"
 viewBox="0.00 0.00 512.00 221.00" xmlns="http://www.w3.org/2000/svg" xmlns:xlink="http://www.w3.org/1999/xlink">
<g id="graph0" class="graph" transform="scale(1 1) rotate(0) translate(4 217)">
<title>IOv2::iostream&lt; TDevice, TChar &gt;</title>
<!-- Node1 -->
<g id="Node000001" class="node">
<title>Node1</title>
<g id="a_Node000001"><a xlink:title="Bidirectional character stream: combines an iochannel and a locale into a formatted input/output inte...">
<polygon fill="#999999" stroke="#666666" points="504,-121.5 361,-121.5 361,-91.5 504,-91.5 504,-121.5"/>
<text text-anchor="start" x="369" y="-109.5" font-family="Helvetica,sans-Serif" font-size="10.00">IOv2::iostream&lt; TDevice,</text>
<text text-anchor="middle" x="432.5" y="-98.5" font-family="Helvetica,sans-Serif" font-size="10.00"> TChar &gt;</text>
</a>
</g>
</g>
<!-- Node2 -->
<g id="Node000002" class="node">
<title>Node2</title>
<g id="a_Node000002"><a xlink:href="structIOv2_1_1ios__state.html" target="_top" xlink:title="Component that adds the stream state bits and their associated exceptions on top of the formatting st...">
<polygon fill="white" stroke="#666666" points="319.5,-213 179.5,-213 179.5,-194 319.5,-194 319.5,-213"/>
<text text-anchor="middle" x="249.5" y="-201" font-family="Helvetica,sans-Serif" font-size="10.00">IOv2::ios_state&lt; TChar &gt;</text>
</a>
</g>
</g>
<!-- Node2&#45;&gt;Node1 -->
<g id="edge1_Node000001_Node000002" class="edge">
<title>Node2&#45;&gt;Node1</title>
<g id="a_edge1_Node000001_Node000002"><a xlink:title=" ">
<path fill="none" stroke="#63b8ff" d="M309.06,-190.87C314.55,-189 319.95,-186.89 325,-184.5 360.03,-167.97 395.22,-139.27 415.1,-121.68"/>
<polygon fill="#63b8ff" stroke="#63b8ff" points="307.64,-187.64 299.14,-193.96 309.73,-194.33 307.64,-187.64"/>
</a>
</g>
</g>
<!-- Node3 -->
<g id="Node000003" class="node">
<title>Node3</title>
<g id="a_Node000003"><a xlink:href="classIOv2_1_1ios__base.html" target="_top" xlink:title="Base class holding the formatting state of every stream.">
<polygon fill="white" stroke="#666666" points="138,-213 0,-213 0,-194 138,-194 138,-213"/>
<text text-anchor="middle" x="69" y="-201" font-family="Helvetica,sans-Serif" font-size="10.00">IOv2::ios_base&lt; TChar &gt;</text>
</a>
</g>
</g>
<!-- Node3&#45;&gt;Node2 -->
<g id="edge2_Node000002_Node000003" class="edge">
<title>Node3&#45;&gt;Node2</title>
<g id="a_edge2_Node000002_Node000003"><a xlink:title=" ">
<path fill="none" stroke="#63b8ff" d="M148.47,-203.5C158.77,-203.5 169.27,-203.5 179.4,-203.5"/>
<polygon fill="#63b8ff" stroke="#63b8ff" points="148.25,-200 138.25,-203.5 148.25,-207 148.25,-200"/>
</a>
</g>
</g>
<!-- Node4 -->
<g id="Node000004" class="node">
<title>Node4</title>
<g id="a_Node000004"><a xlink:href="structIOv2_1_1istream__operators.html" target="_top" xlink:title="Mix&#45;in base that provides the various extraction operations for input streams.">
<polygon fill="white" stroke="#666666" points="316.5,-175.5 182.5,-175.5 182.5,-145.5 316.5,-145.5 316.5,-175.5"/>
<text text-anchor="start" x="190.5" y="-163.5" font-family="Helvetica,sans-Serif" font-size="10.00">IOv2::istream_operators</text>
<text text-anchor="middle" x="249.5" y="-152.5" font-family="Helvetica,sans-Serif" font-size="10.00">&lt; TChar &gt;</text>
</a>
</g>
</g>
<!-- Node4&#45;&gt;Node1 -->
<g id="edge3_Node000001_Node000004" class="edge">
<title>Node4&#45;&gt;Node1</title>
<g id="a_edge3_Node000001_Node000004"><a xlink:title=" ">
<path fill="none" stroke="#63b8ff" d="M310.51,-142.6C333.37,-135.78 359.16,-128.08 381.04,-121.55"/>
<polygon fill="#63b8ff" stroke="#63b8ff" points="309.5,-139.25 300.92,-145.46 311.5,-145.95 309.5,-139.25"/>
</a>
</g>
</g>
<!-- Node5 -->
<g id="Node000005" class="node">
<title>Node5</title>
<g id="a_Node000005"><a xlink:href="structIOv2_1_1out__tie__target.html" target="_top" xlink:title=" ">
<polygon fill="white" stroke="#666666" points="312,-127 187,-127 187,-86 312,-86 312,-127"/>
<text text-anchor="start" x="195" y="-115" font-family="Helvetica,sans-Serif" font-size="10.00">IOv2::out_tie_target</text>
<text text-anchor="start" x="195" y="-104" font-family="Helvetica,sans-Serif" font-size="10.00">&lt; iostream&lt; TDevice,</text>
<text text-anchor="middle" x="249.5" y="-93" font-family="Helvetica,sans-Serif" font-size="10.00"> TChar &gt; &gt;</text>
</a>
</g>
</g>
<!-- Node5&#45;&gt;Node1 -->
<g id="edge4_Node000001_Node000005" class="edge">
<title>Node5&#45;&gt;Node1</title>
<g id="a_edge4_Node000001_Node000005"><a xlink:title=" ">
<path fill="none" stroke="#63b8ff" d="M322.11,-106.5C334.83,-106.5 348.08,-106.5 360.79,-106.5"/>
<polygon fill="#63b8ff" stroke="#63b8ff" points="322.03,-103 312.03,-106.5 322.03,-110 322.03,-103"/>
</a>
</g>
</g>
<!-- Node6 -->
<g id="Node000006" class="node">
<title>Node6</title>
<g id="a_Node000006"><a xlink:href="classIOv2_1_1tie__target.html" target="_top" xlink:title="Abstract base carrying the polymorphic try_flush() interface.">
<polygon fill="white" stroke="#666666" points="115,-116 23,-116 23,-97 115,-97 115,-116"/>
<text text-anchor="middle" x="69" y="-104" font-family="Helvetica,sans-Serif" font-size="10.00">IOv2::tie_target</text>
</a>
</g>
</g>
<!-- Node6&#45;&gt;Node5 -->
<g id="edge5_Node000005_Node000006" class="edge">
<title>Node6&#45;&gt;Node5</title>
<g id="a_edge5_Node000005_Node000006"><a xlink:title=" ">
<path fill="none" stroke="#63b8ff" d="M125.3,-106.5C144.84,-106.5 166.93,-106.5 186.95,-106.5"/>
<polygon fill="#63b8ff" stroke="#63b8ff" points="125.04,-103 115.04,-106.5 125.04,-110 125.04,-103"/>
</a>
</g>
</g>
<!-- Node7 -->
<g id="Node000007" class="node">
<title>Node7</title>
<g id="a_Node000007"><a xlink:href="structIOv2_1_1ostream__operators.html" target="_top" xlink:title="Mix&#45;in base that provides the various insertion operations for output streams.">
<polygon fill="white" stroke="#666666" points="318,-67.5 181,-67.5 181,-37.5 318,-37.5 318,-67.5"/>
<text text-anchor="start" x="189" y="-55.5" font-family="Helvetica,sans-Serif" font-size="10.00">IOv2::ostream_operators</text>
<text text-anchor="middle" x="249.5" y="-44.5" font-family="Helvetica,sans-Serif" font-size="10.00">&lt; TChar &gt;</text>
</a>
</g>
</g>
<!-- Node7&#45;&gt;Node1 -->
<g id="edge6_Node000001_Node000007" class="edge">
<title>Node7&#45;&gt;Node1</title>
<g id="a_edge6_Node000001_Node000007"><a xlink:title=" ">
<path fill="none" stroke="#63b8ff" d="M310.51,-70.4C333.37,-77.22 359.16,-84.92 381.04,-91.45"/>
<polygon fill="#63b8ff" stroke="#63b8ff" points="311.5,-67.05 300.92,-67.54 309.5,-73.75 311.5,-67.05"/>
</a>
</g>
</g>
<!-- Node8 -->
<g id="Node000008" class="node">
<title>Node8</title>
<g id="a_Node000008"><a xlink:href="structIOv2_1_1basic__stream__common__operators.html" target="_top" xlink:title="Mix&#45;in base that provides operations common to input and output streams.">
<polygon fill="white" stroke="#666666" points="325,-19 174,-19 174,0 325,0 325,-19"/>
<text text-anchor="middle" x="249.5" y="-7" font-family="Helvetica,sans-Serif" font-size="10.00">stream_common_operators</text>
</a>
</g>
</g>
<!-- Node8&#45;&gt;Node1 -->
<g id="edge7_Node000001_Node000008" class="edge">
<title>Node8&#45;&gt;Node1</title>
<g id="a_edge7_Node000001_Node000008"><a xlink:title=" ">
<path fill="none" stroke="#63b8ff" d="M309.06,-22.13C314.55,-24 319.95,-26.11 325,-28.5 360.03,-45.03 395.22,-73.73 415.1,-91.32"/>
<polygon fill="#63b8ff" stroke="#63b8ff" points="309.73,-18.67 299.14,-19.04 307.64,-25.36 309.73,-18.67"/>
</a>
</g>
</g>
</g>
</svg>
