<?xml version="1.0" encoding="UTF-8" standalone="no"?>
<!DOCTYPE svg PUBLIC "-//W3C//DTD SVG 1.1//EN"
 "http://www.w3.org/Graphics/SVG/1.1/DTD/svg11.dtd">
<!-- Generated by graphviz version 2.43.0 (0)
 -->
<!-- Title: include/IOv2/facet/messages_details.h Pages: 1 -->
<svg width="1049pt" height="500pt"
 viewBox="0.00 0.00 1048.56 500.00" xmlns="http://www.w3.org/2000/svg" xmlns:xlink="http://www.w3.org/1999/xlink">
<g id="graph0" class="graph" transform="scale(1 1) rotate(0) translate(4 496)">
<title>include/IOv2/facet/messages_details.h</title>
<!-- Node1 -->
<g id="Node000001" class="node">
<title>Node1</title>
<g id="a_Node000001"><a xlink:title=" ">
<polygon fill="#999999" stroke="#666666" points="546.5,-492 430.5,-492 430.5,-462 546.5,-462 546.5,-492"/>
<text text-anchor="start" x="438.5" y="-480" font-family="Helvetica,sans-Serif" font-size="10.00">include/IOv2/facet</text>
<text text-anchor="middle" x="488.5" y="-469" font-family="Helvetica,sans-Serif" font-size="10.00">/messages_details.h</text>
</a>
</g>
</g>
<!-- Node2 -->
<g id="Node000002" class="node">
<title>Node2</title>
<g id="a_Node000002"><a xlink:href="messages_8h.html" target="_top" xlink:title=" ">
<polygon fill="white" stroke="#666666" points="478,-426 373,-426 373,-396 478,-396 478,-426"/>
<text text-anchor="start" x="381" y="-414" font-family="Helvetica,sans-Serif" font-size="10.00">include/IOv2/facet</text>
<text text-anchor="middle" x="425.5" y="-403" font-family="Helvetica,sans-Serif" font-size="10.00">/messages.h</text>
</a>
</g>
</g>
<!-- Node1&#45;&gt;Node2 -->
<g id="edge1_Node000001_Node000002" class="edge">
<title>Node1&#45;&gt;Node2</title>
<g id="a_edge1_Node000001_Node000002"><a xlink:title=" ">
<path fill="none" stroke="#63b8ff" d="M467.48,-454.65C458.25,-445.27 447.67,-434.53 439.44,-426.16"/>
<polygon fill="#63b8ff" stroke="#63b8ff" points="465.01,-457.13 474.52,-461.8 470,-452.21 465.01,-457.13"/>
</a>
</g>
</g>
<!-- Node18 -->
<g id="Node000018" class="node">
<title>Node18</title>
<g id="a_Node000018"><a xlink:href="ori__facet__buf_8h.html" target="_top" xlink:title=" ">
<polygon fill="white" stroke="#666666" points="606.5,-426 496.5,-426 496.5,-396 606.5,-396 606.5,-426"/>
<text text-anchor="start" x="504.5" y="-414" font-family="Helvetica,sans-Serif" font-size="10.00">include/IOv2/locale</text>
<text text-anchor="middle" x="551.5" y="-403" font-family="Helvetica,sans-Serif" font-size="10.00">/ori_facet_buf.h</text>
</a>
</g>
</g>
<!-- Node1&#45;&gt;Node18 -->
<g id="edge41_Node000001_Node000018" class="edge">
<title>Node1&#45;&gt;Node18</title>
<g id="a_edge41_Node000001_Node000018"><a xlink:title=" ">
<path fill="none" stroke="#63b8ff" d="M509.52,-454.65C518.75,-445.27 529.33,-434.53 537.56,-426.16"/>
<polygon fill="#63b8ff" stroke="#63b8ff" points="507,-452.21 502.48,-461.8 511.99,-457.13 507,-452.21"/>
</a>
</g>
</g>
<!-- Node3 -->
<g id="Node000003" class="node">
<title>Node3</title>
<g id="a_Node000003"><a xlink:href="locale_8h.html" target="_top" xlink:title=" ">
<polygon fill="white" stroke="#666666" points="543.5,-360 433.5,-360 433.5,-330 543.5,-330 543.5,-360"/>
<text text-anchor="start" x="441.5" y="-348" font-family="Helvetica,sans-Serif" font-size="10.00">include/IOv2/locale</text>
<text text-anchor="middle" x="488.5" y="-337" font-family="Helvetica,sans-Serif" font-size="10.00">/locale.h</text>
</a>
</g>
</g>
<!-- Node2&#45;&gt;Node3 -->
<g id="edge2_Node000002_Node000003" class="edge">
<title>Node2&#45;&gt;Node3</title>
<g id="a_edge2_Node000002_Node000003"><a xlink:title=" ">
<path fill="none" stroke="#63b8ff" d="M446.52,-388.65C455.75,-379.27 466.33,-368.53 474.56,-360.16"/>
<polygon fill="#63b8ff" stroke="#63b8ff" points="444,-386.21 439.48,-395.8 448.99,-391.13 444,-386.21"/>
</a>
</g>
</g>
<!-- Node4 -->
<g id="Node000004" class="node">
<title>Node4</title>
<g id="a_Node000004"><a xlink:href="io__manip_8h.html" target="_top" xlink:title=" ">
<polygon fill="white" stroke="#666666" points="484,-96 383,-96 383,-66 484,-66 484,-96"/>
<text text-anchor="start" x="391" y="-84" font-family="Helvetica,sans-Serif" font-size="10.00">include/IOv2/io/io</text>
<text text-anchor="middle" x="433.5" y="-73" font-family="Helvetica,sans-Serif" font-size="10.00">_manip.h</text>
</a>
</g>
</g>
<!-- Node3&#45;&gt;Node4 -->
<g id="edge3_Node000003_Node000004" class="edge">
<title>Node3&#45;&gt;Node4</title>
<g id="a_edge3_Node000003_Node000004"><a xlink:title=" ">
<path fill="none" stroke="#63b8ff" d="M439.06,-326.15C419.56,-317.91 397.56,-307.04 379.5,-294 375.44,-291.07 258.34,-166.66 256.5,-162 235.16,-107.79 323.22,-90.32 382.75,-84.68"/>
<polygon fill="#63b8ff" stroke="#63b8ff" points="437.82,-329.43 448.4,-329.99 440.48,-322.95 437.82,-329.43"/>
</a>
</g>
</g>
<!-- Node5 -->
<g id="Node000005" class="node">
<title>Node5</title>
<g id="a_Node000005"><a xlink:href="iostream_8h.html" target="_top" xlink:title=" ">
<polygon fill="white" stroke="#666666" points="645,-156.5 500,-156.5 500,-137.5 645,-137.5 645,-156.5"/>
<text text-anchor="middle" x="572.5" y="-144.5" font-family="Helvetica,sans-Serif" font-size="10.00">include/IOv2/io/iostream.h</text>
</a>
</g>
</g>
<!-- Node3&#45;&gt;Node5 -->
<g id="edge4_Node000003_Node000005" class="edge">
<title>Node3&#45;&gt;Node5</title>
<g id="a_edge4_Node000003_Node000005"><a xlink:title=" ">
<path fill="none" stroke="#63b8ff" d="M449.32,-324.44C437.91,-316.64 426.83,-306.5 420.5,-294 414.48,-282.1 413,-275.03 420.5,-264 444.95,-228.03 476.82,-254.25 511.5,-228 538.24,-207.76 559.18,-172.88 567.98,-156.7"/>
<polygon fill="#63b8ff" stroke="#63b8ff" points="447.71,-327.56 458.04,-329.94 451.45,-321.64 447.71,-327.56"/>
</a>
</g>
</g>
<!-- Node6 -->
<g id="Node000006" class="node">
<title>Node6</title>
<g id="a_Node000006"><a xlink:href="istream_8h.html" target="_top" xlink:title=" ">
<polygon fill="white" stroke="#666666" points="405,-156.5 266,-156.5 266,-137.5 405,-137.5 405,-156.5"/>
<text text-anchor="middle" x="335.5" y="-144.5" font-family="Helvetica,sans-Serif" font-size="10.00">include/IOv2/io/istream.h</text>
</a>
</g>
</g>
<!-- Node3&#45;&gt;Node6 -->
<g id="edge6_Node000003_Node000006" class="edge">
<title>Node3&#45;&gt;Node6</title>
<g id="a_edge6_Node000003_Node000006"><a xlink:title=" ">
<path fill="none" stroke="#63b8ff" d="M523.55,-324.54C548.14,-308.41 573.79,-284.83 556.5,-264 501.05,-197.19 430.67,-284.21 364.5,-228 342.66,-209.44 337.27,-173.07 335.94,-156.54"/>
<polygon fill="#63b8ff" stroke="#63b8ff" points="521.58,-321.65 514.97,-329.92 525.3,-327.58 521.58,-321.65"/>
</a>
</g>
</g>
<!-- Node8 -->
<g id="Node000008" class="node">
<title>Node8</title>
<g id="a_Node000008"><a xlink:href="in__impl_8h.html" target="_top" xlink:title=" ">
<polygon fill="white" stroke="#666666" points="897.5,-96 769.5,-96 769.5,-66 897.5,-66 897.5,-96"/>
<text text-anchor="start" x="777.5" y="-84" font-family="Helvetica,sans-Serif" font-size="10.00">include/IOv2/io/objects</text>
<text text-anchor="middle" x="833.5" y="-73" font-family="Helvetica,sans-Serif" font-size="10.00">/in_impl.h</text>
</a>
</g>
</g>
<!-- Node3&#45;&gt;Node8 -->
<g id="edge9_Node000003_Node000008" class="edge">
<title>Node3&#45;&gt;Node8</title>
<g id="a_edge9_Node000003_Node000008"><a xlink:title=" ">
<path fill="none" stroke="#63b8ff" d="M553.95,-341.63C656.46,-337.01 849.48,-324.48 910.5,-294 983.05,-257.76 1006.34,-237.29 1036.5,-162 1060.13,-103.01 965.63,-86.98 897.66,-82.94"/>
<polygon fill="#63b8ff" stroke="#63b8ff" points="553.56,-338.14 543.72,-342.07 553.86,-345.13 553.56,-338.14"/>
</a>
</g>
</g>
<!-- Node9 -->
<g id="Node000009" class="node">
<title>Node9</title>
<g id="a_Node000009"><a xlink:href="out__impl_8h.html" target="_top" xlink:title=" ">
<polygon fill="white" stroke="#666666" points="1027.5,-162 899.5,-162 899.5,-132 1027.5,-132 1027.5,-162"/>
<text text-anchor="start" x="907.5" y="-150" font-family="Helvetica,sans-Serif" font-size="10.00">include/IOv2/io/objects</text>
<text text-anchor="middle" x="963.5" y="-139" font-family="Helvetica,sans-Serif" font-size="10.00">/out_impl.h</text>
</a>
</g>
</g>
<!-- Node3&#45;&gt;Node9 -->
<g id="edge11_Node000003_Node000009" class="edge">
<title>Node3&#45;&gt;Node9</title>
<g id="a_edge11_Node000003_Node000009"><a xlink:title=" ">
<path fill="none" stroke="#63b8ff" d="M553.76,-342.69C651.33,-339.58 829.37,-329.12 881.5,-294 929.24,-261.84 952.19,-192.09 960.13,-162.13"/>
<polygon fill="#63b8ff" stroke="#63b8ff" points="553.6,-339.19 543.71,-342.99 553.81,-346.19 553.6,-339.19"/>
</a>
</g>
</g>
<!-- Node10 -->
<g id="Node000010" class="node">
<title>Node10</title>
<g id="a_Node000010"><a xlink:href="ostream_8h.html" target="_top" xlink:title=" ">
<polygon fill="white" stroke="#666666" points="805.5,-156.5 663.5,-156.5 663.5,-137.5 805.5,-137.5 805.5,-156.5"/>
<text text-anchor="middle" x="734.5" y="-144.5" font-family="Helvetica,sans-Serif" font-size="10.00">include/IOv2/io/ostream.h</text>
</a>
</g>
</g>
<!-- Node3&#45;&gt;Node10 -->
<g id="edge14_Node000003_Node000010" class="edge">
<title>Node3&#45;&gt;Node10</title>
<g id="a_edge14_Node000003_Node000010"><a xlink:title=" ">
<path fill="none" stroke="#63b8ff" d="M529.58,-325.12C544.53,-316.96 560.85,-306.41 573.5,-294 609.25,-258.93 595.44,-231.69 632.5,-198 654.24,-178.23 685.23,-164.54 707.33,-156.54"/>
<polygon fill="#63b8ff" stroke="#63b8ff" points="527.72,-322.15 520.49,-329.89 530.97,-328.34 527.72,-322.15"/>
</a>
</g>
</g>
<!-- Node11 -->
<g id="Node000011" class="node">
<title>Node11</title>
<g id="a_Node000011"><a xlink:href="arithmetic_8h.html" target="_top" xlink:title=" ">
<polygon fill="white" stroke="#666666" points="547.5,-294 429.5,-294 429.5,-264 547.5,-264 547.5,-294"/>
<text text-anchor="start" x="437.5" y="-282" font-family="Helvetica,sans-Serif" font-size="10.00">include/IOv2/io/traits</text>
<text text-anchor="middle" x="488.5" y="-271" font-family="Helvetica,sans-Serif" font-size="10.00">/arithmetic.h</text>
</a>
</g>
</g>
<!-- Node3&#45;&gt;Node11 -->
<g id="edge17_Node000003_Node000011" class="edge">
<title>Node3&#45;&gt;Node11</title>
<g id="a_edge17_Node000003_Node000011"><a xlink:title=" ">
<path fill="none" stroke="#63b8ff" d="M488.5,-319.54C488.5,-310.96 488.5,-301.61 488.5,-294.16"/>
<polygon fill="#63b8ff" stroke="#63b8ff" points="485,-319.8 488.5,-329.8 492,-319.8 485,-319.8"/>
</a>
</g>
</g>
<!-- Node12 -->
<g id="Node000012" class="node">
<title>Node12</title>
<g id="a_Node000012"><a xlink:href="char__and__str_8h.html" target="_top" xlink:title=" ">
<polygon fill="white" stroke="#666666" points="241.5,-294 123.5,-294 123.5,-264 241.5,-264 241.5,-294"/>
<text text-anchor="start" x="131.5" y="-282" font-family="Helvetica,sans-Serif" font-size="10.00">include/IOv2/io/traits</text>
<text text-anchor="middle" x="182.5" y="-271" font-family="Helvetica,sans-Serif" font-size="10.00">/char_and_str.h</text>
</a>
</g>
</g>
<!-- Node3&#45;&gt;Node12 -->
<g id="edge18_Node000003_Node000012" class="edge">
<title>Node3&#45;&gt;Node12</title>
<g id="a_edge18_Node000003_Node000012"><a xlink:title=" ">
<path fill="none" stroke="#63b8ff" d="M423.65,-330.44C369.77,-319.17 293.76,-303.27 241.55,-292.35"/>
<polygon fill="#63b8ff" stroke="#63b8ff" points="422.94,-333.86 433.44,-332.48 424.37,-327.01 422.94,-333.86"/>
</a>
</g>
</g>
<!-- Node13 -->
<g id="Node000013" class="node">
<title>Node13</title>
<g id="a_Node000013"><a xlink:href="nullptr_8h.html" target="_top" xlink:title=" ">
<polygon fill="white" stroke="#666666" points="279.5,-228 161.5,-228 161.5,-198 279.5,-198 279.5,-228"/>
<text text-anchor="start" x="169.5" y="-216" font-family="Helvetica,sans-Serif" font-size="10.00">include/IOv2/io/traits</text>
<text text-anchor="middle" x="220.5" y="-205" font-family="Helvetica,sans-Serif" font-size="10.00">/nullptr.h</text>
</a>
</g>
</g>
<!-- Node3&#45;&gt;Node13 -->
<g id="edge22_Node000003_Node000013" class="edge">
<title>Node3&#45;&gt;Node13</title>
<g id="a_edge22_Node000003_Node000013"><a xlink:title=" ">
<path fill="none" stroke="#63b8ff" d="M422.99,-336.83C383.31,-330.23 332.91,-317.68 293.5,-294 265.46,-277.15 241.81,-246.25 229.54,-228.18"/>
<polygon fill="#63b8ff" stroke="#63b8ff" points="422.68,-340.32 433.1,-338.42 423.77,-333.41 422.68,-340.32"/>
</a>
</g>
</g>
<!-- Node14 -->
<g id="Node000014" class="node">
<title>Node14</title>
<g id="a_Node000014"><a xlink:href="tm_8h.html" target="_top" xlink:title=" ">
<polygon fill="white" stroke="#666666" points="143,-222.5 0,-222.5 0,-203.5 143,-203.5 143,-222.5"/>
<text text-anchor="middle" x="71.5" y="-210.5" font-family="Helvetica,sans-Serif" font-size="10.00">include/IOv2/io/traits/tm.h</text>
</a>
</g>
</g>
<!-- Node3&#45;&gt;Node14 -->
<g id="edge23_Node000003_Node000014" class="edge">
<title>Node3&#45;&gt;Node14</title>
<g id="a_edge23_Node000003_Node000014"><a xlink:title=" ">
<path fill="none" stroke="#63b8ff" d="M423.13,-342.31C329.52,-338.73 163.18,-327.68 114.5,-294 89.34,-276.6 77.62,-239.63 73.42,-222.74"/>
<polygon fill="#63b8ff" stroke="#63b8ff" points="423.22,-345.81 433.35,-342.68 423.48,-338.82 423.22,-345.81"/>
</a>
</g>
</g>
<!-- Node15 -->
<g id="Node000015" class="node">
<title>Node15</title>
<g id="a_Node000015"><a xlink:href="istream__operators_8h.html" target="_top" xlink:title=" ">
<polygon fill="white" stroke="#666666" points="503,-228 374,-228 374,-198 503,-198 503,-228"/>
<text text-anchor="start" x="382" y="-216" font-family="Helvetica,sans-Serif" font-size="10.00">include/IOv2/io/utilities</text>
<text text-anchor="middle" x="438.5" y="-205" font-family="Helvetica,sans-Serif" font-size="10.00">/istream_operators.h</text>
</a>
</g>
</g>
<!-- Node3&#45;&gt;Node15 -->
<g id="edge24_Node000003_Node000015" class="edge">
<title>Node3&#45;&gt;Node15</title>
<g id="a_edge24_Node000003_Node000015"><a xlink:title=" ">
<path fill="none" stroke="#63b8ff" d="M424.97,-325.65C410.18,-318.26 396.22,-308.04 387.5,-294 373.08,-270.77 398.8,-244.03 418.67,-228.1"/>
<polygon fill="#63b8ff" stroke="#63b8ff" points="423.7,-328.92 434.25,-329.9 426.61,-322.55 423.7,-328.92"/>
</a>
</g>
</g>
<!-- Node16 -->
<g id="Node000016" class="node">
<title>Node16</title>
<g id="a_Node000016"><a xlink:href="ostream__operators_8h.html" target="_top" xlink:title=" ">
<polygon fill="white" stroke="#666666" points="872,-294 743,-294 743,-264 872,-264 872,-294"/>
<text text-anchor="start" x="751" y="-282" font-family="Helvetica,sans-Serif" font-size="10.00">include/IOv2/io/utilities</text>
<text text-anchor="middle" x="807.5" y="-271" font-family="Helvetica,sans-Serif" font-size="10.00">/ostream_operators.h</text>
</a>
</g>
</g>
<!-- Node3&#45;&gt;Node16 -->
<g id="edge29_Node000003_Node000016" class="edge">
<title>Node3&#45;&gt;Node16</title>
<g id="a_edge29_Node000003_Node000016"><a xlink:title=" ">
<path fill="none" stroke="#63b8ff" d="M553.73,-330.91C608.97,-319.83 687.73,-304.03 742.81,-292.98"/>
<polygon fill="#63b8ff" stroke="#63b8ff" points="552.82,-327.53 543.7,-332.93 554.19,-334.39 552.82,-327.53"/>
</a>
</g>
</g>
<!-- Node17 -->
<g id="Node000017" class="node">
<title>Node17</title>
<g id="a_Node000017"><a xlink:href="stream__common__operators_8h.html" target="_top" xlink:title=" ">
<polygon fill="white" stroke="#666666" points="805,-228 642,-228 642,-198 805,-198 805,-228"/>
<text text-anchor="start" x="650" y="-216" font-family="Helvetica,sans-Serif" font-size="10.00">include/IOv2/io/utilities</text>
<text text-anchor="middle" x="723.5" y="-205" font-family="Helvetica,sans-Serif" font-size="10.00">/stream_common_operators.h</text>
</a>
</g>
</g>
<!-- Node3&#45;&gt;Node17 -->
<g id="edge40_Node000003_Node000017" class="edge">
<title>Node3&#45;&gt;Node17</title>
<g id="a_edge40_Node000003_Node000017"><a xlink:title=" ">
<path fill="none" stroke="#63b8ff" d="M550.57,-326.82C575.36,-318.66 603.63,-307.67 627.5,-294 659.88,-275.46 692.09,-245.72 709.73,-228.2"/>
<polygon fill="#63b8ff" stroke="#63b8ff" points="549.35,-323.53 540.9,-329.92 551.49,-330.2 549.35,-323.53"/>
</a>
</g>
</g>
<!-- Node5&#45;&gt;Node4 -->
<g id="edge5_Node000005_Node000004" class="edge">
<title>Node5&#45;&gt;Node4</title>
<g id="a_edge5_Node000005_Node000004"><a xlink:title=" ">
<path fill="none" stroke="#63b8ff" d="M544.43,-133.08C521.16,-122.36 488.12,-107.15 464.16,-96.12"/>
<polygon fill="#63b8ff" stroke="#63b8ff" points="543.21,-136.37 553.75,-137.37 546.13,-130.01 543.21,-136.37"/>
</a>
</g>
</g>
<!-- Node6&#45;&gt;Node4 -->
<g id="edge7_Node000006_Node000004" class="edge">
<title>Node6&#45;&gt;Node4</title>
<g id="a_edge7_Node000006_Node000004"><a xlink:title=" ">
<path fill="none" stroke="#63b8ff" d="M357.53,-131.62C373.77,-121.01 395.75,-106.66 411.89,-96.12"/>
<polygon fill="#63b8ff" stroke="#63b8ff" points="355.18,-128.97 348.72,-137.37 359,-134.83 355.18,-128.97"/>
</a>
</g>
</g>
<!-- Node7 -->
<g id="Node000007" class="node">
<title>Node7</title>
<g id="a_Node000007"><a xlink:href="objects_8h.html" target="_top" xlink:title=" ">
<polygon fill="white" stroke="#666666" points="850.5,-30 722.5,-30 722.5,0 850.5,0 850.5,-30"/>
<text text-anchor="start" x="730.5" y="-18" font-family="Helvetica,sans-Serif" font-size="10.00">include/IOv2/io/objects</text>
<text text-anchor="middle" x="786.5" y="-7" font-family="Helvetica,sans-Serif" font-size="10.00">/objects.h</text>
</a>
</g>
</g>
<!-- Node6&#45;&gt;Node7 -->
<g id="edge8_Node000006_Node000007" class="edge">
<title>Node6&#45;&gt;Node7</title>
<g id="a_edge8_Node000006_Node000007"><a xlink:title=" ">
<path fill="none" stroke="#63b8ff" d="M338.98,-127.25C343.51,-108.52 353.36,-80.5 373.5,-66 427.87,-26.86 620.29,-18.19 722.16,-16.38"/>
<polygon fill="#63b8ff" stroke="#63b8ff" points="335.51,-126.75 336.85,-137.26 342.35,-128.21 335.51,-126.75"/>
</a>
</g>
</g>
<!-- Node8&#45;&gt;Node7 -->
<g id="edge10_Node000008_Node000007" class="edge">
<title>Node8&#45;&gt;Node7</title>
<g id="a_edge10_Node000008_Node000007"><a xlink:title=" ">
<path fill="none" stroke="#63b8ff" d="M817,-57.53C810.31,-48.43 802.8,-38.19 796.9,-30.16"/>
<polygon fill="#63b8ff" stroke="#63b8ff" points="814.33,-59.81 823.07,-65.8 819.97,-55.66 814.33,-59.81"/>
</a>
</g>
</g>
<!-- Node9&#45;&gt;Node7 -->
<g id="edge13_Node000009_Node000007" class="edge">
<title>Node9&#45;&gt;Node7</title>
<g id="a_edge13_Node000009_Node000007"><a xlink:title=" ">
<path fill="none" stroke="#63b8ff" d="M951.57,-122.66C941.58,-105.08 925.85,-81.43 906.5,-66 886.21,-49.82 859.93,-38.08 837.14,-30.07"/>
<polygon fill="#63b8ff" stroke="#63b8ff" points="948.66,-124.62 956.52,-131.72 954.8,-121.27 948.66,-124.62"/>
</a>
</g>
</g>
<!-- Node9&#45;&gt;Node8 -->
<g id="edge12_Node000009_Node000008" class="edge">
<title>Node9&#45;&gt;Node8</title>
<g id="a_edge12_Node000009_Node000008"><a xlink:title=" ">
<path fill="none" stroke="#63b8ff" d="M925.95,-127.51C905.55,-117.47 880.74,-105.26 861.96,-96.01"/>
<polygon fill="#63b8ff" stroke="#63b8ff" points="924.45,-130.68 934.97,-131.95 927.55,-124.4 924.45,-130.68"/>
</a>
</g>
</g>
<!-- Node10&#45;&gt;Node4 -->
<g id="edge15_Node000010_Node000004" class="edge">
<title>Node10&#45;&gt;Node4</title>
<g id="a_edge15_Node000010_Node000004"><a xlink:title=" ">
<path fill="none" stroke="#63b8ff" d="M684.25,-135.32C628.71,-123.51 539.76,-104.59 484.08,-92.76"/>
<polygon fill="#63b8ff" stroke="#63b8ff" points="683.71,-138.78 694.22,-137.44 685.16,-131.93 683.71,-138.78"/>
</a>
</g>
</g>
<!-- Node10&#45;&gt;Node7 -->
<g id="edge16_Node000010_Node000007" class="edge">
<title>Node10&#45;&gt;Node7</title>
<g id="a_edge16_Node000010_Node000007"><a xlink:title=" ">
<path fill="none" stroke="#63b8ff" d="M739.57,-127.5C744.29,-111.08 751.88,-86.57 760.5,-66 765.72,-53.55 772.87,-39.99 778.35,-30.14"/>
<polygon fill="#63b8ff" stroke="#63b8ff" points="736.11,-126.85 736.78,-137.42 742.85,-128.74 736.11,-126.85"/>
</a>
</g>
</g>
<!-- Node12&#45;&gt;Node13 -->
<g id="edge19_Node000012_Node000013" class="edge">
<title>Node12&#45;&gt;Node13</title>
<g id="a_edge19_Node000012_Node000013"><a xlink:title=" ">
<path fill="none" stroke="#63b8ff" d="M196.18,-254.96C201.5,-246 207.42,-236.03 212.09,-228.16"/>
<polygon fill="#63b8ff" stroke="#63b8ff" points="193.03,-253.41 190.93,-263.8 199.05,-256.98 193.03,-253.41"/>
</a>
</g>
</g>
<!-- Node12&#45;&gt;Node14 -->
<g id="edge20_Node000012_Node000014" class="edge">
<title>Node12&#45;&gt;Node14</title>
<g id="a_edge20_Node000012_Node000014"><a xlink:title=" ">
<path fill="none" stroke="#63b8ff" d="M149.22,-258.81C128.27,-246.73 102.26,-231.73 86.27,-222.52"/>
<polygon fill="#63b8ff" stroke="#63b8ff" points="147.73,-261.99 158.14,-263.95 151.23,-255.93 147.73,-261.99"/>
</a>
</g>
</g>
<!-- Node14&#45;&gt;Node4 -->
<g id="edge21_Node000014_Node000004" class="edge">
<title>Node14&#45;&gt;Node4</title>
<g id="a_edge21_Node000014_Node000004"><a xlink:title=" ">
<path fill="none" stroke="#63b8ff" d="M93.72,-198.02C122.61,-180.38 175.13,-150.16 223.5,-132 276.31,-112.18 339.6,-98.38 382.8,-90.38"/>
<polygon fill="#63b8ff" stroke="#63b8ff" points="91.87,-195.04 85.2,-203.27 95.55,-201 91.87,-195.04"/>
</a>
</g>
</g>
<!-- Node15&#45;&gt;Node4 -->
<g id="edge25_Node000015_Node000004" class="edge">
<title>Node15&#45;&gt;Node4</title>
<g id="a_edge25_Node000015_Node000004"><a xlink:title=" ">
<path fill="none" stroke="#63b8ff" d="M437.56,-187.68C436.53,-160.7 434.89,-118.11 434.04,-96.14"/>
<polygon fill="#63b8ff" stroke="#63b8ff" points="434.07,-187.98 437.96,-197.84 441.07,-187.71 434.07,-187.98"/>
</a>
</g>
</g>
<!-- Node15&#45;&gt;Node5 -->
<g id="edge26_Node000015_Node000005" class="edge">
<title>Node15&#45;&gt;Node5</title>
<g id="a_edge26_Node000015_Node000005"><a xlink:title=" ">
<path fill="none" stroke="#63b8ff" d="M476.98,-193.62C502.55,-181.41 534.94,-165.94 554.67,-156.52"/>
<polygon fill="#63b8ff" stroke="#63b8ff" points="475.42,-190.49 467.91,-197.95 478.44,-196.8 475.42,-190.49"/>
</a>
</g>
</g>
<!-- Node15&#45;&gt;Node6 -->
<g id="edge27_Node000015_Node000006" class="edge">
<title>Node15&#45;&gt;Node6</title>
<g id="a_edge27_Node000015_Node000006"><a xlink:title=" ">
<path fill="none" stroke="#63b8ff" d="M407.36,-192.65C387.96,-180.6 363.97,-165.69 349.21,-156.52"/>
<polygon fill="#63b8ff" stroke="#63b8ff" points="405.56,-195.65 415.9,-197.95 409.25,-189.7 405.56,-195.65"/>
</a>
</g>
</g>
<!-- Node15&#45;&gt;Node8 -->
<g id="edge28_Node000015_Node000008" class="edge">
<title>Node15&#45;&gt;Node8</title>
<g id="a_edge28_Node000015_Node000008"><a xlink:title=" ">
<path fill="none" stroke="#63b8ff" d="M447.38,-188.49C455.64,-170.01 469.81,-145.25 490.5,-132 535.48,-103.2 682.98,-90.3 769.21,-85.1"/>
<polygon fill="#63b8ff" stroke="#63b8ff" points="444.14,-187.16 443.49,-197.74 450.59,-189.87 444.14,-187.16"/>
</a>
</g>
</g>
<!-- Node16&#45;&gt;Node4 -->
<g id="edge30_Node000016_Node000004" class="edge">
<title>Node16&#45;&gt;Node4</title>
<g id="a_edge30_Node000016_Node000004"><a xlink:title=" ">
<path fill="none" stroke="#63b8ff" d="M821.28,-254.82C825.42,-246.64 829.41,-237.18 831.5,-228 841.11,-185.75 846.94,-160.72 814.5,-132 766.55,-89.55 576.21,-82.65 484.04,-81.85"/>
<polygon fill="#63b8ff" stroke="#63b8ff" points="818.13,-253.29 816.46,-263.76 824.29,-256.62 818.13,-253.29"/>
</a>
</g>
</g>
<!-- Node16&#45;&gt;Node5 -->
<g id="edge31_Node000016_Node000005" class="edge">
<title>Node16&#45;&gt;Node5</title>
<g id="a_edge31_Node000016_Node000005"><a xlink:title=" ">
<path fill="none" stroke="#63b8ff" d="M732.86,-267.71C699.94,-260.51 662.1,-248.37 632.5,-228 605.04,-209.1 585.02,-173.55 576.73,-156.96"/>
<polygon fill="#63b8ff" stroke="#63b8ff" points="732.4,-271.19 742.9,-269.79 733.82,-264.34 732.4,-271.19"/>
</a>
</g>
</g>
<!-- Node16&#45;&gt;Node9 -->
<g id="edge32_Node000016_Node000009" class="edge">
<title>Node16&#45;&gt;Node9</title>
<g id="a_edge32_Node000016_Node000009"><a xlink:title=" ">
<path fill="none" stroke="#63b8ff" d="M841.64,-258.46C855.72,-249.81 871.9,-239.09 885.5,-228 910.91,-207.28 936.76,-179.05 951.4,-162.26"/>
<polygon fill="#63b8ff" stroke="#63b8ff" points="839.49,-255.67 832.73,-263.83 843.1,-261.66 839.49,-255.67"/>
</a>
</g>
</g>
<!-- Node16&#45;&gt;Node10 -->
<g id="edge33_Node000016_Node000010" class="edge">
<title>Node16&#45;&gt;Node10</title>
<g id="a_edge33_Node000016_Node000010"><a xlink:title=" ">
<path fill="none" stroke="#63b8ff" d="M816.26,-254.4C820.95,-237.65 824.01,-215.17 814.5,-198 803.15,-177.51 779.51,-164.31 760.86,-156.65"/>
<polygon fill="#63b8ff" stroke="#63b8ff" points="812.9,-253.41 813.23,-264 819.58,-255.52 812.9,-253.41"/>
</a>
</g>
</g>
<!-- Node16&#45;&gt;Node17 -->
<g id="edge34_Node000016_Node000017" class="edge">
<title>Node16&#45;&gt;Node17</title>
<g id="a_edge34_Node000016_Node000017"><a xlink:title=" ">
<path fill="none" stroke="#63b8ff" d="M780.56,-257.48C768.01,-247.91 753.39,-236.77 742.09,-228.16"/>
<polygon fill="#63b8ff" stroke="#63b8ff" points="778.78,-260.52 788.86,-263.8 783.02,-254.95 778.78,-260.52"/>
</a>
</g>
</g>
<!-- Node17&#45;&gt;Node5 -->
<g id="edge35_Node000017_Node000005" class="edge">
<title>Node17&#45;&gt;Node5</title>
<g id="a_edge35_Node000017_Node000005"><a xlink:title=" ">
<path fill="none" stroke="#63b8ff" d="M680.89,-193.94C651.96,-181.68 615.02,-166.02 592.6,-156.52"/>
<polygon fill="#63b8ff" stroke="#63b8ff" points="679.79,-197.28 690.36,-197.95 682.52,-190.83 679.79,-197.28"/>
</a>
</g>
</g>
<!-- Node17&#45;&gt;Node6 -->
<g id="edge36_Node000017_Node000006" class="edge">
<title>Node17&#45;&gt;Node6</title>
<g id="a_edge36_Node000017_Node000006"><a xlink:title=" ">
<path fill="none" stroke="#63b8ff" d="M631.6,-196.84C555.29,-184.25 449.51,-166.8 387.21,-156.53"/>
<polygon fill="#63b8ff" stroke="#63b8ff" points="631.25,-200.33 641.69,-198.51 632.39,-193.42 631.25,-200.33"/>
</a>
</g>
</g>
<!-- Node17&#45;&gt;Node8 -->
<g id="edge37_Node000017_Node000008" class="edge">
<title>Node17&#45;&gt;Node8</title>
<g id="a_edge37_Node000017_Node000008"><a xlink:title=" ">
<path fill="none" stroke="#63b8ff" d="M774.57,-193.37C789.37,-185.71 804.28,-175.42 814.5,-162 829.29,-142.58 832.8,-113.41 833.5,-96.18"/>
<polygon fill="#63b8ff" stroke="#63b8ff" points="772.89,-190.29 765.41,-197.8 775.94,-196.59 772.89,-190.29"/>
</a>
</g>
</g>
<!-- Node17&#45;&gt;Node9 -->
<g id="edge38_Node000017_Node000009" class="edge">
<title>Node17&#45;&gt;Node9</title>
<g id="a_edge38_Node000017_Node000009"><a xlink:title=" ">
<path fill="none" stroke="#63b8ff" d="M786.3,-195.25C825.07,-184.91 874.25,-171.8 910.95,-162.01"/>
<polygon fill="#63b8ff" stroke="#63b8ff" points="784.93,-192 776.17,-197.95 786.73,-198.76 784.93,-192"/>
</a>
</g>
</g>
<!-- Node17&#45;&gt;Node10 -->
<g id="edge39_Node000017_Node000010" class="edge">
<title>Node17&#45;&gt;Node10</title>
<g id="a_edge39_Node000017_Node000010"><a xlink:title=" ">
<path fill="none" stroke="#63b8ff" d="M727.64,-187.94C729.51,-177.06 731.6,-164.86 732.98,-156.84"/>
<polygon fill="#63b8ff" stroke="#63b8ff" points="724.19,-187.35 725.94,-197.8 731.08,-188.53 724.19,-187.35"/>
</a>
</g>
</g>
<!-- Node18&#45;&gt;Node3 -->
<g id="edge42_Node000018_Node000003" class="edge">
<title>Node18&#45;&gt;Node3</title>
<g id="a_edge42_Node000018_Node000003"><a xlink:title=" ">
<path fill="none" stroke="#63b8ff" d="M530.48,-388.65C521.25,-379.27 510.67,-368.53 502.44,-360.16"/>
<polygon fill="#63b8ff" stroke="#63b8ff" points="528.01,-391.13 537.52,-395.8 533,-386.21 528.01,-391.13"/>
</a>
</g>
</g>
</g>
</svg>
