<?xml version="1.0" encoding="UTF-8" standalone="no"?>
<!DOCTYPE svg PUBLIC "-//W3C//DTD SVG 1.1//EN"
 "http://www.w3.org/Graphics/SVG/1.1/DTD/svg11.dtd">
<!-- Generated by graphviz version 2.43.0 (0)
 -->
<!-- Title: IOv2::timeio_conf&lt; CharT &gt; Pages: 1 -->
<svg width="310pt" height="238pt"
 viewBox="0.00 0.00 309.50 238.00" xmlns="http://www.w3.org/2000/svg" xmlns:xlink="http://www.w3.org/1999/xlink">
<g id="graph0" class="graph" transform="scale(1 1) rotate(0) translate(4 234)">
<title>IOv2::timeio_conf&lt; CharT &gt;</title>
<!-- Node1 -->
<g id="Node000001" class="node">
<title>Node1</title>
<g id="a_Node000001"><a xlink:title="timeio facet 的宽字符（wchar_t / char32_t UTF&#45;32）locale 配置类。">
<polygon fill="#999999" stroke="#666666" points="258.5,-30 147.5,-30 147.5,0 258.5,0 258.5,-30"/>
<text text-anchor="start" x="155.5" y="-18" font-family="Helvetica,sans-Serif" font-size="10.00">IOv2::timeio_conf&lt;</text>
<text text-anchor="middle" x="203" y="-7" font-family="Helvetica,sans-Serif" font-size="10.00"> CharT &gt;</text>
</a>
</g>
</g>
<!-- Node2 -->
<g id="Node000002" class="node">
<title>Node2</title>
<g id="a_Node000002"><a xlink:href="classIOv2_1_1ft__basic_3_01timeio_3_01CharT_01_4_01_4.html" target="_top" xlink:title="timeio facet 的基类模板特化。">
<polygon fill="white" stroke="#666666" points="158.5,-97 33.5,-97 33.5,-67 158.5,-67 158.5,-97"/>
<text text-anchor="start" x="41.5" y="-85" font-family="Helvetica,sans-Serif" font-size="10.00">IOv2::ft_basic&lt; timeio</text>
<text text-anchor="middle" x="96" y="-74" font-family="Helvetica,sans-Serif" font-size="10.00">&lt; CharT &gt; &gt;</text>
</a>
</g>
</g>
<!-- Node2&#45;&gt;Node1 -->
<g id="edge1_Node000001_Node000002" class="edge">
<title>Node2&#45;&gt;Node1</title>
<g id="a_edge1_Node000001_Node000002"><a xlink:title=" ">
<path fill="none" stroke="#63b8ff" d="M128.08,-61.52C144.73,-51.4 164.69,-39.27 179.83,-30.08"/>
<polygon fill="#63b8ff" stroke="#63b8ff" points="125.95,-58.71 119.22,-66.9 129.58,-64.7 125.95,-58.71"/>
</a>
</g>
</g>
<!-- Node3 -->
<g id="Node000003" class="node">
<title>Node3</title>
<g id="a_Node000003"><a xlink:href="classIOv2_1_1base__ft_3_01timeio_01_4.html" target="_top" xlink:title="timeio 的中间基类特化，持有与字符类型无关的时区数据。">
<polygon fill="white" stroke="#666666" points="163,-153 29,-153 29,-134 163,-134 163,-153"/>
<text text-anchor="middle" x="96" y="-141" font-family="Helvetica,sans-Serif" font-size="10.00">IOv2::base_ft&lt; timeio &gt;</text>
</a>
</g>
</g>
<!-- Node3&#45;&gt;Node2 -->
<g id="edge2_Node000002_Node000003" class="edge">
<title>Node3&#45;&gt;Node2</title>
<g id="a_edge2_Node000002_Node000003"><a xlink:title=" ">
<path fill="none" stroke="#63b8ff" d="M96,-123.73C96,-115.09 96,-105 96,-97.02"/>
<polygon fill="#63b8ff" stroke="#63b8ff" points="92.5,-123.98 96,-133.98 99.5,-123.98 92.5,-123.98"/>
</a>
</g>
</g>
<!-- Node4 -->
<g id="Node000004" class="node">
<title>Node4</title>
<g id="a_Node000004"><a xlink:href="structIOv2_1_1abs__ft.html" target="_top" xlink:title=" ">
<polygon fill="white" stroke="#666666" points="74,-224.5 0,-224.5 0,-205.5 74,-205.5 74,-224.5"/>
<text text-anchor="middle" x="37" y="-212.5" font-family="Helvetica,sans-Serif" font-size="10.00">IOv2::abs_ft</text>
</a>
</g>
</g>
<!-- Node4&#45;&gt;Node3 -->
<g id="edge3_Node000003_Node000004" class="edge">
<title>Node4&#45;&gt;Node3</title>
<g id="a_edge3_Node000003_Node000004"><a xlink:title=" ">
<path fill="none" stroke="#63b8ff" d="M50.89,-197.63C62.74,-183.68 79.3,-164.17 88.71,-153.09"/>
<polygon fill="#63b8ff" stroke="#63b8ff" points="48.04,-195.59 44.23,-205.48 53.37,-200.12 48.04,-195.59"/>
</a>
</g>
</g>
<!-- Node5 -->
<g id="Node000005" class="node">
<title>Node5</title>
<g id="a_Node000005"><a xlink:href="classIOv2_1_1prefix__tree.html" target="_top" xlink:title=" ">
<polygon fill="white" stroke="#666666" points="220,-230 92,-230 92,-200 220,-200 220,-230"/>
<text text-anchor="start" x="100" y="-218" font-family="Helvetica,sans-Serif" font-size="10.00">IOv2::prefix_tree&lt;</text>
<text text-anchor="middle" x="156" y="-207" font-family="Helvetica,sans-Serif" font-size="10.00"> char, IOv2::zone_ref &gt;</text>
</a>
</g>
</g>
<!-- Node5&#45;&gt;Node3 -->
<g id="edge4_Node000003_Node000005" class="edge">
<title>Node5&#45;&gt;Node3</title>
<g id="a_edge4_Node000003_Node000005"><a xlink:title=" ">
<path fill="none" stroke="#9a32cd" stroke-dasharray="5,2" d="M137.18,-192.2C125.82,-179.04 111.96,-162.99 103.57,-153.27"/>
<polygon fill="#9a32cd" stroke="#9a32cd" points="134.67,-194.65 143.86,-199.94 139.97,-190.08 134.67,-194.65"/>
</a>
</g>
<text text-anchor="middle" x="170.5" y="-174" font-family="Helvetica,sans-Serif" font-size="10.00" fill="grey"> s_timezone_tree</text>
</g>
<!-- Node6 -->
<g id="Node000006" class="node">
<title>Node6</title>
<g id="a_Node000006"><a xlink:href="classIOv2_1_1ft__basic.html" target="_top" xlink:title=" ">
<polygon fill="white" stroke="#666666" points="301.5,-97 176.5,-97 176.5,-67 301.5,-67 301.5,-97"/>
<text text-anchor="start" x="184.5" y="-85" font-family="Helvetica,sans-Serif" font-size="10.00">IOv2::ft_basic&lt; timeio</text>
<text text-anchor="middle" x="239" y="-74" font-family="Helvetica,sans-Serif" font-size="10.00">&lt; char8_t &gt; &gt;</text>
</a>
</g>
</g>
<!-- Node6&#45;&gt;Node1 -->
<g id="edge5_Node000001_Node000006" class="edge">
<title>Node6&#45;&gt;Node1</title>
<g id="a_edge5_Node000001_Node000006"><a xlink:title=" ">
<path fill="none" stroke="#63b8ff" d="M226.3,-58.08C221.13,-48.74 215.32,-38.25 210.8,-30.08"/>
<polygon fill="#63b8ff" stroke="#63b8ff" points="223.28,-59.84 231.19,-66.9 229.41,-56.45 223.28,-59.84"/>
</a>
</g>
</g>
</g>
</svg>
