<?xml version="1.0" encoding="UTF-8" standalone="no"?>
<!DOCTYPE svg PUBLIC "-//W3C//DTD SVG 1.1//EN"
 "http://www.w3.org/Graphics/SVG/1.1/DTD/svg11.dtd">
<!-- Generated by graphviz version 2.43.0 (0)
 -->
<!-- Title: IOv2::__wcin Pages: 1 -->
<svg width="931pt" height="321pt"
 viewBox="0.00 0.00 931.00 321.00" xmlns="http://www.w3.org/2000/svg" xmlns:xlink="http://www.w3.org/1999/xlink">
<g id="graph0" class="graph" transform="scale(1 1) rotate(0) translate(4 317)">
<title>IOv2::__wcin</title>
<!-- Node1 -->
<g id="Node000001" class="node">
<title>Node1</title>
<g id="a_Node000001"><a xlink:title="wcin">
<polygon fill="#999999" stroke="#666666" points="923,-78.5 845,-78.5 845,-59.5 923,-59.5 923,-78.5"/>
<text text-anchor="middle" x="884" y="-66.5" font-family="Helvetica,sans-Serif" font-size="10.00">IOv2::__wcin</text>
</a>
</g>
</g>
<!-- Node2 -->
<g id="Node000002" class="node">
<title>Node2</title>
<g id="a_Node000002"><a xlink:href="classIOv2_1_1stdin__api.html" target="_top" xlink:title=" ">
<polygon fill="white" stroke="#666666" points="808,-131.5 664,-131.5 664,-90.5 808,-90.5 808,-131.5"/>
<text text-anchor="start" x="672" y="-119.5" font-family="Helvetica,sans-Serif" font-size="10.00">IOv2::stdin_api&lt; _</text>
<text text-anchor="start" x="672" y="-108.5" font-family="Helvetica,sans-Serif" font-size="10.00">_wcin, std_device&lt; STDIN</text>
<text text-anchor="middle" x="736" y="-97.5" font-family="Helvetica,sans-Serif" font-size="10.00">_FILENO &gt;, wchar_t &gt;</text>
</a>
</g>
</g>
<!-- Node2&#45;&gt;Node1 -->
<g id="edge1_Node000001_Node000002" class="edge">
<title>Node2&#45;&gt;Node1</title>
<g id="a_edge1_Node000001_Node000002"><a xlink:title=" ">
<path fill="none" stroke="#63b8ff" d="M818.12,-87.67C829.25,-84.46 840.14,-81.33 849.71,-78.58"/>
<polygon fill="#63b8ff" stroke="#63b8ff" points="816.93,-84.36 808.29,-90.49 818.87,-91.09 816.93,-84.36"/>
</a>
</g>
</g>
<!-- Node3 -->
<g id="Node000003" class="node">
<title>Node3</title>
<g id="a_Node000003"><a xlink:href="structIOv2_1_1ios__state.html" target="_top" xlink:title="在格式化状态之上，管理流状态位及其关联异常的组件。">
<polygon fill="white" stroke="#666666" points="558,-211.5 418,-211.5 418,-192.5 558,-192.5 558,-211.5"/>
<text text-anchor="middle" x="488" y="-199.5" font-family="Helvetica,sans-Serif" font-size="10.00">IOv2::ios_state&lt; TChar &gt;</text>
</a>
</g>
</g>
<!-- Node3&#45;&gt;Node2 -->
<g id="edge2_Node000002_Node000003" class="edge">
<title>Node3&#45;&gt;Node2</title>
<g id="a_edge2_Node000002_Node000003"><a xlink:title=" ">
<path fill="none" stroke="#63b8ff" d="M536.73,-189.78C544.22,-187.65 551.85,-185.36 559,-183 604.3,-168.05 654.54,-147.04 689.7,-131.57"/>
<polygon fill="#63b8ff" stroke="#63b8ff" points="535.7,-186.44 527,-192.48 537.58,-193.18 535.7,-186.44"/>
</a>
</g>
</g>
<!-- Node4 -->
<g id="Node000004" class="node">
<title>Node4</title>
<g id="a_Node000004"><a xlink:href="classIOv2_1_1ios__base.html" target="_top" xlink:title="所有流的格式化状态基类。">
<polygon fill="white" stroke="#666666" points="380,-211.5 242,-211.5 242,-192.5 380,-192.5 380,-211.5"/>
<text text-anchor="middle" x="311" y="-199.5" font-family="Helvetica,sans-Serif" font-size="10.00">IOv2::ios_base&lt; TChar &gt;</text>
</a>
</g>
</g>
<!-- Node4&#45;&gt;Node3 -->
<g id="edge3_Node000003_Node000004" class="edge">
<title>Node4&#45;&gt;Node3</title>
<g id="a_edge3_Node000003_Node000004"><a xlink:title=" ">
<path fill="none" stroke="#63b8ff" d="M390.42,-202C399.57,-202 408.86,-202 417.87,-202"/>
<polygon fill="#63b8ff" stroke="#63b8ff" points="390.16,-198.5 380.16,-202 390.16,-205.5 390.16,-198.5"/>
</a>
</g>
</g>
<!-- Node5 -->
<g id="Node000005" class="node">
<title>Node5</title>
<g id="a_Node000005"><a xlink:href="classIOv2_1_1copyable__atomic.html" target="_top" xlink:title=" ">
<polygon fill="white" stroke="#666666" points="135,-313 7,-313 7,-283 135,-283 135,-313"/>
<text text-anchor="start" x="15" y="-301" font-family="Helvetica,sans-Serif" font-size="10.00">IOv2::copyable_atomic</text>
<text text-anchor="middle" x="71" y="-290" font-family="Helvetica,sans-Serif" font-size="10.00">&lt; std::uint16_t &gt;</text>
</a>
</g>
</g>
<!-- Node5&#45;&gt;Node4 -->
<g id="edge4_Node000004_Node000005" class="edge">
<title>Node5&#45;&gt;Node4</title>
<g id="a_edge4_Node000004_Node000005"><a xlink:title=" ">
<path fill="none" stroke="#9a32cd" stroke-dasharray="5,2" d="M131.72,-279.76C160.05,-270.56 194.14,-258.67 224,-246 248.7,-235.52 276.12,-220.95 293.21,-211.5"/>
<polygon fill="#9a32cd" stroke="#9a32cd" points="130.41,-276.51 121.96,-282.9 132.55,-283.17 130.41,-276.51"/>
</a>
</g>
<text text-anchor="middle" x="192" y="-272" font-family="Helvetica,sans-Serif" font-size="10.00" fill="grey"> m_flags</text>
</g>
<!-- Node6 -->
<g id="Node000006" class="node">
<title>Node6</title>
<g id="a_Node000006"><a xlink:href="classIOv2_1_1copyable__atomic.html" target="_top" xlink:title=" ">
<polygon fill="white" stroke="#666666" points="135,-265 7,-265 7,-235 135,-235 135,-265"/>
<text text-anchor="start" x="15" y="-253" font-family="Helvetica,sans-Serif" font-size="10.00">IOv2::copyable_atomic</text>
<text text-anchor="middle" x="71" y="-242" font-family="Helvetica,sans-Serif" font-size="10.00">&lt; std::uint8_t &gt;</text>
</a>
</g>
</g>
<!-- Node6&#45;&gt;Node4 -->
<g id="edge5_Node000004_Node000006" class="edge">
<title>Node6&#45;&gt;Node4</title>
<g id="a_edge5_Node000004_Node000006"><a xlink:title=" ">
<path fill="none" stroke="#9a32cd" stroke-dasharray="5,2" d="M145.22,-235.23C183.5,-227.51 229.23,-218.29 262.79,-211.52"/>
<polygon fill="#9a32cd" stroke="#9a32cd" points="144.27,-231.85 135.15,-237.26 145.65,-238.72 144.27,-231.85"/>
</a>
</g>
<text text-anchor="middle" x="192" y="-234" font-family="Helvetica,sans-Serif" font-size="10.00" fill="grey"> m_precision</text>
</g>
<!-- Node7 -->
<g id="Node000007" class="node">
<title>Node7</title>
<g id="a_Node000007"><a xlink:href="classIOv2_1_1copyable__atomic.html" target="_top" xlink:title=" ">
<polygon fill="white" stroke="#666666" points="135,-217 7,-217 7,-187 135,-187 135,-217"/>
<text text-anchor="start" x="15" y="-205" font-family="Helvetica,sans-Serif" font-size="10.00">IOv2::copyable_atomic</text>
<text text-anchor="middle" x="71" y="-194" font-family="Helvetica,sans-Serif" font-size="10.00">&lt; std::size_t &gt;</text>
</a>
</g>
</g>
<!-- Node7&#45;&gt;Node4 -->
<g id="edge6_Node000004_Node000007" class="edge">
<title>Node7&#45;&gt;Node4</title>
<g id="a_edge6_Node000004_Node000007"><a xlink:title=" ">
<path fill="none" stroke="#9a32cd" stroke-dasharray="5,2" d="M145.4,-202C176.18,-202 211.77,-202 241.95,-202"/>
<polygon fill="#9a32cd" stroke="#9a32cd" points="145.15,-198.5 135.15,-202 145.15,-205.5 145.15,-198.5"/>
</a>
</g>
<text text-anchor="middle" x="192" y="-205" font-family="Helvetica,sans-Serif" font-size="10.00" fill="grey"> m_width</text>
</g>
<!-- Node8 -->
<g id="Node000008" class="node">
<title>Node8</title>
<g id="a_Node000008"><a xlink:href="classIOv2_1_1copyable__atomic.html" target="_top" xlink:title=" ">
<polygon fill="white" stroke="#666666" points="135,-169 7,-169 7,-139 135,-139 135,-169"/>
<text text-anchor="start" x="15" y="-157" font-family="Helvetica,sans-Serif" font-size="10.00">IOv2::copyable_atomic</text>
<text text-anchor="middle" x="71" y="-146" font-family="Helvetica,sans-Serif" font-size="10.00">&lt; TChar &gt;</text>
</a>
</g>
</g>
<!-- Node8&#45;&gt;Node4 -->
<g id="edge7_Node000004_Node000008" class="edge">
<title>Node8&#45;&gt;Node4</title>
<g id="a_edge7_Node000004_Node000008"><a xlink:title=" ">
<path fill="none" stroke="#9a32cd" stroke-dasharray="5,2" d="M145.22,-168.77C183.5,-176.49 229.23,-185.71 262.79,-192.48"/>
<polygon fill="#9a32cd" stroke="#9a32cd" points="145.65,-165.28 135.15,-166.74 144.27,-172.15 145.65,-165.28"/>
</a>
</g>
<text text-anchor="middle" x="192" y="-186" font-family="Helvetica,sans-Serif" font-size="10.00" fill="grey"> m_fill</text>
</g>
<!-- Node9 -->
<g id="Node000009" class="node">
<title>Node9</title>
<g id="a_Node000009"><a xlink:href="classIOv2_1_1copyable__mutex.html" target="_top" xlink:title=" ">
<polygon fill="white" stroke="#666666" points="142,-121 0,-121 0,-91 142,-91 142,-121"/>
<text text-anchor="start" x="8" y="-109" font-family="Helvetica,sans-Serif" font-size="10.00">IOv2::copyable_mutex</text>
<text text-anchor="middle" x="71" y="-98" font-family="Helvetica,sans-Serif" font-size="10.00">&lt; std::recursive_mutex &gt;</text>
</a>
</g>
</g>
<!-- Node9&#45;&gt;Node4 -->
<g id="edge8_Node000004_Node000009" class="edge">
<title>Node9&#45;&gt;Node4</title>
<g id="a_edge8_Node000004_Node000009"><a xlink:title=" ">
<path fill="none" stroke="#9a32cd" stroke-dasharray="5,2" d="M133.11,-124.07C161.18,-132.98 194.68,-144.5 224,-157 248.96,-167.64 276.54,-182.69 293.57,-192.4"/>
<polygon fill="#9a32cd" stroke="#9a32cd" points="134.01,-120.68 123.42,-121.02 131.91,-127.36 134.01,-120.68"/>
</a>
</g>
<text text-anchor="middle" x="192" y="-160" font-family="Helvetica,sans-Serif" font-size="10.00" fill="grey"> m_io_mutex</text>
</g>
<!-- Node10 -->
<g id="Node000010" class="node">
<title>Node10</title>
<g id="a_Node000010"><a xlink:href="structIOv2_1_1istream__operators.html" target="_top" xlink:title="为输入流提供各类提取操作的混入（mix&#45;in）基类。">
<polygon fill="white" stroke="#666666" points="555,-174 421,-174 421,-144 555,-144 555,-174"/>
<text text-anchor="start" x="429" y="-162" font-family="Helvetica,sans-Serif" font-size="10.00">IOv2::istream_operators</text>
<text text-anchor="middle" x="488" y="-151" font-family="Helvetica,sans-Serif" font-size="10.00">&lt; TChar &gt;</text>
</a>
</g>
</g>
<!-- Node10&#45;&gt;Node2 -->
<g id="edge9_Node000002_Node000010" class="edge">
<title>Node10&#45;&gt;Node2</title>
<g id="a_edge9_Node000002_Node000010"><a xlink:title=" ">
<path fill="none" stroke="#63b8ff" d="M565.28,-144.12C596.74,-137.98 632.99,-130.9 663.89,-124.88"/>
<polygon fill="#63b8ff" stroke="#63b8ff" points="564.39,-140.72 555.25,-146.07 565.73,-147.59 564.39,-140.72"/>
</a>
</g>
</g>
<!-- Node11 -->
<g id="Node000011" class="node">
<title>Node11</title>
<g id="a_Node000011"><a xlink:href="structIOv2_1_1stream__common__operators.html" target="_top" xlink:title="为输入流与输出流提供公共操作的混入（mix&#45;in）基类。">
<polygon fill="white" stroke="#666666" points="552,-126 424,-126 424,-96 552,-96 552,-126"/>
<text text-anchor="start" x="432" y="-114" font-family="Helvetica,sans-Serif" font-size="10.00">IOv2::stream_common</text>
<text text-anchor="middle" x="488" y="-103" font-family="Helvetica,sans-Serif" font-size="10.00">_operators</text>
</a>
</g>
</g>
<!-- Node11&#45;&gt;Node2 -->
<g id="edge10_Node000002_Node000011" class="edge">
<title>Node11&#45;&gt;Node2</title>
<g id="a_edge10_Node000002_Node000011"><a xlink:title=" ">
<path fill="none" stroke="#63b8ff" d="M562.26,-111C594.4,-111 631.99,-111 663.88,-111"/>
<polygon fill="#63b8ff" stroke="#63b8ff" points="562.03,-107.5 552.03,-111 562.03,-114.5 562.03,-107.5"/>
</a>
</g>
</g>
<!-- Node12 -->
<g id="Node000012" class="node">
<title>Node12</title>
<g id="a_Node000012"><a xlink:href="structIOv2_1_1istreambuf.html" target="_top" xlink:title=" ">
<polygon fill="white" stroke="#666666" points="559,-78 417,-78 417,-48 559,-48 559,-78"/>
<text text-anchor="start" x="425" y="-66" font-family="Helvetica,sans-Serif" font-size="10.00">IOv2::istreambuf&lt; device</text>
<text text-anchor="middle" x="488" y="-55" font-family="Helvetica,sans-Serif" font-size="10.00">_type, char_type &gt;</text>
</a>
</g>
</g>
<!-- Node12&#45;&gt;Node2 -->
<g id="edge11_Node000002_Node000012" class="edge">
<title>Node12&#45;&gt;Node2</title>
<g id="a_edge11_Node000002_Node000012"><a xlink:title=" ">
<path fill="none" stroke="#9a32cd" stroke-dasharray="5,2" d="M569.34,-78.68C599.83,-84.62 634.31,-91.35 663.89,-97.12"/>
<polygon fill="#9a32cd" stroke="#9a32cd" points="569.65,-75.17 559.16,-76.69 568.31,-82.04 569.65,-75.17"/>
</a>
</g>
<text text-anchor="middle" x="611.5" y="-96" font-family="Helvetica,sans-Serif" font-size="10.00" fill="grey"> m_streambuf</text>
</g>
<!-- Node13 -->
<g id="Node000013" class="node">
<title>Node13</title>
<g id="a_Node000013"><a xlink:href="classIOv2_1_1base__streambuf.html" target="_top" xlink:title="流缓冲区的通用实现基类。">
<polygon fill="white" stroke="#666666" points="375,-83.5 247,-83.5 247,-42.5 375,-42.5 375,-83.5"/>
<text text-anchor="start" x="255" y="-71.5" font-family="Helvetica,sans-Serif" font-size="10.00">IOv2::base_streambuf</text>
<text text-anchor="start" x="255" y="-60.5" font-family="Helvetica,sans-Serif" font-size="10.00">&lt; TDevice, TChar, IsIn,</text>
<text text-anchor="middle" x="311" y="-49.5" font-family="Helvetica,sans-Serif" font-size="10.00"> IsOut &gt;</text>
</a>
</g>
</g>
<!-- Node13&#45;&gt;Node12 -->
<g id="edge12_Node000012_Node000013" class="edge">
<title>Node13&#45;&gt;Node12</title>
<g id="a_edge12_Node000012_Node000013"><a xlink:title=" ">
<path fill="none" stroke="#63b8ff" d="M385.45,-63C395.83,-63 406.48,-63 416.8,-63"/>
<polygon fill="#63b8ff" stroke="#63b8ff" points="385.18,-59.5 375.18,-63 385.18,-66.5 385.18,-59.5"/>
</a>
</g>
</g>
<!-- Node14 -->
<g id="Node000014" class="node">
<title>Node14</title>
<g id="a_Node000014"><a xlink:href="classIOv2_1_1locale.html" target="_top" xlink:title=" ">
<polygon fill="white" stroke="#666666" points="541.5,-30 434.5,-30 434.5,0 541.5,0 541.5,-30"/>
<text text-anchor="start" x="442.5" y="-18" font-family="Helvetica,sans-Serif" font-size="10.00">IOv2::locale&lt; char</text>
<text text-anchor="middle" x="488" y="-7" font-family="Helvetica,sans-Serif" font-size="10.00">_type &gt;</text>
</a>
</g>
</g>
<!-- Node14&#45;&gt;Node2 -->
<g id="edge13_Node000002_Node000014" class="edge">
<title>Node14&#45;&gt;Node2</title>
<g id="a_edge13_Node000002_Node000014"><a xlink:title=" ">
<path fill="none" stroke="#9a32cd" stroke-dasharray="5,2" d="M551.54,-30.39C581.15,-39 616.42,-51.2 646,-67 654.94,-71.77 655.26,-75.87 664,-81 669.66,-84.32 675.75,-87.46 681.9,-90.38"/>
<polygon fill="#9a32cd" stroke="#9a32cd" points="552.31,-26.97 541.73,-27.61 550.4,-33.71 552.31,-26.97"/>
</a>
</g>
<text text-anchor="middle" x="611.5" y="-70" font-family="Helvetica,sans-Serif" font-size="10.00" fill="grey"> m_locale</text>
</g>
<!-- Node15 -->
<g id="Node000015" class="node">
<title>Node15</title>
<g id="a_Node000015"><a xlink:href="classIOv2_1_1sing__temp.html" target="_top" xlink:title=" ">
<polygon fill="white" stroke="#666666" points="792.5,-72 679.5,-72 679.5,-42 792.5,-42 792.5,-72"/>
<text text-anchor="start" x="687.5" y="-60" font-family="Helvetica,sans-Serif" font-size="10.00">IOv2::sing_temp&lt; _</text>
<text text-anchor="middle" x="736" y="-49" font-family="Helvetica,sans-Serif" font-size="10.00">_wcin &gt;</text>
</a>
</g>
</g>
<!-- Node15&#45;&gt;Node1 -->
<g id="edge14_Node000001_Node000015" class="edge">
<title>Node15&#45;&gt;Node1</title>
<g id="a_edge14_Node000001_Node000015"><a xlink:title=" ">
<path fill="none" stroke="#63b8ff" d="M802.94,-62.42C817.26,-63.6 831.94,-64.8 844.75,-65.86"/>
<polygon fill="#63b8ff" stroke="#63b8ff" points="802.87,-58.9 792.61,-61.57 802.29,-65.88 802.87,-58.9"/>
</a>
</g>
</g>
</g>
</svg>
