<?xml version="1.0" encoding="UTF-8" standalone="no"?>
<!DOCTYPE svg PUBLIC "-//W3C//DTD SVG 1.1//EN"
 "http://www.w3.org/Graphics/SVG/1.1/DTD/svg11.dtd">
<!-- Generated by graphviz version 2.43.0 (0)
 -->
<!-- Title: IOv2::stdout_api&lt; T, TDevice, TChar &gt; Pages: 1 -->
<svg width="842pt" height="396pt"
 viewBox="0.00 0.00 842.00 396.00" xmlns="http://www.w3.org/2000/svg" xmlns:xlink="http://www.w3.org/1999/xlink">
<g id="graph0" class="graph" transform="scale(1 1) rotate(0) translate(4 392)">
<title>IOv2::stdout_api&lt; T, TDevice, TChar &gt;</title>
<!-- Node1 -->
<g id="Node000001" class="node">
<title>Node1</title>
<g id="a_Node000001"><a xlink:title=" ">
<polygon fill="#999999" stroke="#666666" points="834,-169 718,-169 718,-139 834,-139 834,-169"/>
<text text-anchor="start" x="726" y="-157" font-family="Helvetica,sans-Serif" font-size="10.00">IOv2::stdout_api&lt; T,</text>
<text text-anchor="middle" x="776" y="-146" font-family="Helvetica,sans-Serif" font-size="10.00"> TDevice, TChar &gt;</text>
</a>
</g>
</g>
<!-- Node2 -->
<g id="Node000002" class="node">
<title>Node2</title>
<g id="a_Node000002"><a xlink:href="structIOv2_1_1ios__state.html" target="_top" xlink:title="在格式化状态之上，管理流状态位及其关联异常的组件。">
<polygon fill="white" stroke="#666666" points="572.5,-286.5 432.5,-286.5 432.5,-267.5 572.5,-267.5 572.5,-286.5"/>
<text text-anchor="middle" x="502.5" y="-274.5" font-family="Helvetica,sans-Serif" font-size="10.00">IOv2::ios_state&lt; TChar &gt;</text>
</a>
</g>
</g>
<!-- Node2&#45;&gt;Node1 -->
<g id="edge1_Node000001_Node000002" class="edge">
<title>Node2&#45;&gt;Node1</title>
<g id="a_edge1_Node000001_Node000002"><a xlink:title=" ">
<path fill="none" stroke="#63b8ff" d="M566.15,-265.22C606.31,-255.86 658.49,-240.25 700,-216 722.61,-202.79 745.34,-182.85 759.75,-169.17"/>
<polygon fill="#63b8ff" stroke="#63b8ff" points="565.2,-261.84 556.22,-267.46 566.74,-268.67 565.2,-261.84"/>
</a>
</g>
</g>
<!-- Node3 -->
<g id="Node000003" class="node">
<title>Node3</title>
<g id="a_Node000003"><a xlink:href="classIOv2_1_1ios__base.html" target="_top" xlink:title="所有流的格式化状态基类。">
<polygon fill="white" stroke="#666666" points="380,-286.5 242,-286.5 242,-267.5 380,-267.5 380,-286.5"/>
<text text-anchor="middle" x="311" y="-274.5" font-family="Helvetica,sans-Serif" font-size="10.00">IOv2::ios_base&lt; TChar &gt;</text>
</a>
</g>
</g>
<!-- Node3&#45;&gt;Node2 -->
<g id="edge2_Node000002_Node000003" class="edge">
<title>Node3&#45;&gt;Node2</title>
<g id="a_edge2_Node000002_Node000003"><a xlink:title=" ">
<path fill="none" stroke="#63b8ff" d="M390.22,-277C404.19,-277 418.67,-277 432.37,-277"/>
<polygon fill="#63b8ff" stroke="#63b8ff" points="390.15,-273.5 380.15,-277 390.15,-280.5 390.15,-273.5"/>
</a>
</g>
</g>
<!-- Node4 -->
<g id="Node000004" class="node">
<title>Node4</title>
<g id="a_Node000004"><a xlink:href="classIOv2_1_1copyable__atomic.html" target="_top" xlink:title=" ">
<polygon fill="white" stroke="#666666" points="135,-388 7,-388 7,-358 135,-358 135,-388"/>
<text text-anchor="start" x="15" y="-376" font-family="Helvetica,sans-Serif" font-size="10.00">IOv2::copyable_atomic</text>
<text text-anchor="middle" x="71" y="-365" font-family="Helvetica,sans-Serif" font-size="10.00">&lt; std::uint16_t &gt;</text>
</a>
</g>
</g>
<!-- Node4&#45;&gt;Node3 -->
<g id="edge3_Node000003_Node000004" class="edge">
<title>Node4&#45;&gt;Node3</title>
<g id="a_edge3_Node000003_Node000004"><a xlink:title=" ">
<path fill="none" stroke="#9a32cd" stroke-dasharray="5,2" d="M131.72,-354.76C160.05,-345.56 194.14,-333.67 224,-321 248.7,-310.52 276.12,-295.95 293.21,-286.5"/>
<polygon fill="#9a32cd" stroke="#9a32cd" points="130.41,-351.51 121.96,-357.9 132.55,-358.17 130.41,-351.51"/>
</a>
</g>
<text text-anchor="middle" x="192" y="-347" font-family="Helvetica,sans-Serif" font-size="10.00" fill="grey"> m_flags</text>
</g>
<!-- Node5 -->
<g id="Node000005" class="node">
<title>Node5</title>
<g id="a_Node000005"><a xlink:href="classIOv2_1_1copyable__atomic.html" target="_top" xlink:title=" ">
<polygon fill="white" stroke="#666666" points="135,-340 7,-340 7,-310 135,-310 135,-340"/>
<text text-anchor="start" x="15" y="-328" font-family="Helvetica,sans-Serif" font-size="10.00">IOv2::copyable_atomic</text>
<text text-anchor="middle" x="71" y="-317" font-family="Helvetica,sans-Serif" font-size="10.00">&lt; std::uint8_t &gt;</text>
</a>
</g>
</g>
<!-- Node5&#45;&gt;Node3 -->
<g id="edge4_Node000003_Node000005" class="edge">
<title>Node5&#45;&gt;Node3</title>
<g id="a_edge4_Node000003_Node000005"><a xlink:title=" ">
<path fill="none" stroke="#9a32cd" stroke-dasharray="5,2" d="M145.22,-310.23C183.5,-302.51 229.23,-293.29 262.79,-286.52"/>
<polygon fill="#9a32cd" stroke="#9a32cd" points="144.27,-306.85 135.15,-312.26 145.65,-313.72 144.27,-306.85"/>
</a>
</g>
<text text-anchor="middle" x="192" y="-309" font-family="Helvetica,sans-Serif" font-size="10.00" fill="grey"> m_precision</text>
</g>
<!-- Node6 -->
<g id="Node000006" class="node">
<title>Node6</title>
<g id="a_Node000006"><a xlink:href="classIOv2_1_1copyable__atomic.html" target="_top" xlink:title=" ">
<polygon fill="white" stroke="#666666" points="135,-292 7,-292 7,-262 135,-262 135,-292"/>
<text text-anchor="start" x="15" y="-280" font-family="Helvetica,sans-Serif" font-size="10.00">IOv2::copyable_atomic</text>
<text text-anchor="middle" x="71" y="-269" font-family="Helvetica,sans-Serif" font-size="10.00">&lt; std::size_t &gt;</text>
</a>
</g>
</g>
<!-- Node6&#45;&gt;Node3 -->
<g id="edge5_Node000003_Node000006" class="edge">
<title>Node6&#45;&gt;Node3</title>
<g id="a_edge5_Node000003_Node000006"><a xlink:title=" ">
<path fill="none" stroke="#9a32cd" stroke-dasharray="5,2" d="M145.4,-277C176.18,-277 211.77,-277 241.95,-277"/>
<polygon fill="#9a32cd" stroke="#9a32cd" points="145.15,-273.5 135.15,-277 145.15,-280.5 145.15,-273.5"/>
</a>
</g>
<text text-anchor="middle" x="192" y="-280" font-family="Helvetica,sans-Serif" font-size="10.00" fill="grey"> m_width</text>
</g>
<!-- Node7 -->
<g id="Node000007" class="node">
<title>Node7</title>
<g id="a_Node000007"><a xlink:href="classIOv2_1_1copyable__atomic.html" target="_top" xlink:title=" ">
<polygon fill="white" stroke="#666666" points="135,-244 7,-244 7,-214 135,-214 135,-244"/>
<text text-anchor="start" x="15" y="-232" font-family="Helvetica,sans-Serif" font-size="10.00">IOv2::copyable_atomic</text>
<text text-anchor="middle" x="71" y="-221" font-family="Helvetica,sans-Serif" font-size="10.00">&lt; TChar &gt;</text>
</a>
</g>
</g>
<!-- Node7&#45;&gt;Node3 -->
<g id="edge6_Node000003_Node000007" class="edge">
<title>Node7&#45;&gt;Node3</title>
<g id="a_edge6_Node000003_Node000007"><a xlink:title=" ">
<path fill="none" stroke="#9a32cd" stroke-dasharray="5,2" d="M145.22,-243.77C183.5,-251.49 229.23,-260.71 262.79,-267.48"/>
<polygon fill="#9a32cd" stroke="#9a32cd" points="145.65,-240.28 135.15,-241.74 144.27,-247.15 145.65,-240.28"/>
</a>
</g>
<text text-anchor="middle" x="192" y="-261" font-family="Helvetica,sans-Serif" font-size="10.00" fill="grey"> m_fill</text>
</g>
<!-- Node8 -->
<g id="Node000008" class="node">
<title>Node8</title>
<g id="a_Node000008"><a xlink:href="classIOv2_1_1copyable__mutex.html" target="_top" xlink:title=" ">
<polygon fill="white" stroke="#666666" points="142,-196 0,-196 0,-166 142,-166 142,-196"/>
<text text-anchor="start" x="8" y="-184" font-family="Helvetica,sans-Serif" font-size="10.00">IOv2::copyable_mutex</text>
<text text-anchor="middle" x="71" y="-173" font-family="Helvetica,sans-Serif" font-size="10.00">&lt; std::recursive_mutex &gt;</text>
</a>
</g>
</g>
<!-- Node8&#45;&gt;Node3 -->
<g id="edge7_Node000003_Node000008" class="edge">
<title>Node8&#45;&gt;Node3</title>
<g id="a_edge7_Node000003_Node000008"><a xlink:title=" ">
<path fill="none" stroke="#9a32cd" stroke-dasharray="5,2" d="M151.9,-197.1C176.71,-204.78 203.02,-215.95 224,-232 235.45,-240.77 230.27,-250.61 242,-259 246.77,-262.41 252.14,-265.17 257.72,-267.41"/>
<polygon fill="#9a32cd" stroke="#9a32cd" points="152.7,-193.68 142.12,-194.22 150.72,-200.4 152.7,-193.68"/>
</a>
</g>
<text text-anchor="middle" x="192" y="-235" font-family="Helvetica,sans-Serif" font-size="10.00" fill="grey"> m_io_mutex</text>
</g>
<!-- Node9 -->
<g id="Node000009" class="node">
<title>Node9</title>
<g id="a_Node000009"><a xlink:href="structIOv2_1_1out__tie__target.html" target="_top" xlink:title="承载多态 try_flush() 的 CRTP 基类：对具体流类型 T 的向下转型集中于此。">
<polygon fill="white" stroke="#666666" points="573.5,-249.5 431.5,-249.5 431.5,-230.5 573.5,-230.5 573.5,-249.5"/>
<text text-anchor="middle" x="502.5" y="-237.5" font-family="Helvetica,sans-Serif" font-size="10.00">IOv2::out_tie_target&lt; T &gt;</text>
</a>
</g>
</g>
<!-- Node9&#45;&gt;Node1 -->
<g id="edge8_Node000001_Node000009" class="edge">
<title>Node9&#45;&gt;Node1</title>
<g id="a_edge8_Node000001_Node000009"><a xlink:title=" ">
<path fill="none" stroke="#63b8ff" d="M561.37,-228.3C601.04,-219.47 654.5,-206 700,-189 715.35,-183.27 731.9,-175.7 745.54,-169.07"/>
<polygon fill="#63b8ff" stroke="#63b8ff" points="560.62,-224.88 551.6,-230.44 562.12,-231.71 560.62,-224.88"/>
</a>
</g>
</g>
<!-- Node10 -->
<g id="Node000010" class="node">
<title>Node10</title>
<g id="a_Node000010"><a xlink:href="classIOv2_1_1tie__target.html" target="_top" xlink:title="承载多态 try_flush() 接口的抽象基类。">
<polygon fill="white" stroke="#666666" points="357,-249.5 265,-249.5 265,-230.5 357,-230.5 357,-249.5"/>
<text text-anchor="middle" x="311" y="-237.5" font-family="Helvetica,sans-Serif" font-size="10.00">IOv2::tie_target</text>
</a>
</g>
</g>
<!-- Node10&#45;&gt;Node9 -->
<g id="edge9_Node000009_Node000010" class="edge">
<title>Node10&#45;&gt;Node9</title>
<g id="a_edge9_Node000009_Node000010"><a xlink:title=" ">
<path fill="none" stroke="#63b8ff" d="M367.54,-240C387.5,-240 410.27,-240 431.31,-240"/>
<polygon fill="#63b8ff" stroke="#63b8ff" points="367.39,-236.5 357.39,-240 367.39,-243.5 367.39,-236.5"/>
</a>
</g>
</g>
<!-- Node11 -->
<g id="Node000011" class="node">
<title>Node11</title>
<g id="a_Node000011"><a xlink:href="structIOv2_1_1ostream__operators.html" target="_top" xlink:title="为输出流提供各类插入操作的混入（mix&#45;in）基类。">
<polygon fill="white" stroke="#666666" points="571,-212 434,-212 434,-182 571,-182 571,-212"/>
<text text-anchor="start" x="442" y="-200" font-family="Helvetica,sans-Serif" font-size="10.00">IOv2::ostream_operators</text>
<text text-anchor="middle" x="502.5" y="-189" font-family="Helvetica,sans-Serif" font-size="10.00">&lt; TChar &gt;</text>
</a>
</g>
</g>
<!-- Node11&#45;&gt;Node1 -->
<g id="edge10_Node000001_Node000011" class="edge">
<title>Node11&#45;&gt;Node1</title>
<g id="a_edge10_Node000001_Node000011"><a xlink:title=" ">
<path fill="none" stroke="#63b8ff" d="M581.34,-186.21C617.48,-181.02 660.98,-174.52 700,-168 705.75,-167.04 711.74,-166 717.71,-164.93"/>
<polygon fill="#63b8ff" stroke="#63b8ff" points="580.75,-182.75 571.35,-187.63 581.75,-189.68 580.75,-182.75"/>
</a>
</g>
</g>
<!-- Node12 -->
<g id="Node000012" class="node">
<title>Node12</title>
<g id="a_Node000012"><a xlink:href="structIOv2_1_1basic__stream__common__operators.html" target="_top" xlink:title="为输入流与输出流提供公共操作的混入（mix&#45;in）基类。">
<polygon fill="white" stroke="#666666" points="588,-163.5 417,-163.5 417,-144.5 588,-144.5 588,-163.5"/>
<text text-anchor="middle" x="502.5" y="-151.5" font-family="Helvetica,sans-Serif" font-size="10.00">std_stream_common_operators</text>
</a>
</g>
</g>
<!-- Node12&#45;&gt;Node1 -->
<g id="edge11_Node000001_Node000012" class="edge">
<title>Node12&#45;&gt;Node1</title>
<g id="a_edge11_Node000001_Node000012"><a xlink:title=" ">
<path fill="none" stroke="#63b8ff" d="M598.3,-154C638.16,-154 683.23,-154 717.87,-154"/>
<polygon fill="#63b8ff" stroke="#63b8ff" points="598.29,-150.5 588.29,-154 598.29,-157.5 598.29,-150.5"/>
</a>
</g>
</g>
<!-- Node13 -->
<g id="Node000013" class="node">
<title>Node13</title>
<g id="a_Node000013"><a xlink:href="structIOv2_1_1ochannel.html" target="_top" xlink:title=" ">
<polygon fill="white" stroke="#666666" points="569,-126 436,-126 436,-96 569,-96 569,-126"/>
<text text-anchor="start" x="444" y="-114" font-family="Helvetica,sans-Serif" font-size="10.00">IOv2::ochannel&lt; device</text>
<text text-anchor="middle" x="502.5" y="-103" font-family="Helvetica,sans-Serif" font-size="10.00">_type, char_type &gt;</text>
</a>
</g>
</g>
<!-- Node13&#45;&gt;Node1 -->
<g id="edge12_Node000001_Node000013" class="edge">
<title>Node13&#45;&gt;Node1</title>
<g id="a_edge12_Node000001_Node000013"><a xlink:title=" ">
<path fill="none" stroke="#9a32cd" stroke-dasharray="5,2" d="M579.24,-120.79C615.8,-125.77 660.26,-132.2 700,-139 705.76,-139.99 711.75,-141.08 717.73,-142.2"/>
<polygon fill="#9a32cd" stroke="#9a32cd" points="579.52,-117.29 569.14,-119.42 578.58,-124.23 579.52,-117.29"/>
</a>
</g>
<text text-anchor="middle" x="653" y="-142" font-family="Helvetica,sans-Serif" font-size="10.00" fill="grey"> m_channel</text>
</g>
<!-- Node14 -->
<g id="Node000014" class="node">
<title>Node14</title>
<g id="a_Node000014"><a xlink:href="classIOv2_1_1base__channel.html" target="_top" xlink:title="通道的通用实现基类。">
<polygon fill="white" stroke="#666666" points="375,-131.5 247,-131.5 247,-90.5 375,-90.5 375,-131.5"/>
<text text-anchor="start" x="255" y="-119.5" font-family="Helvetica,sans-Serif" font-size="10.00">IOv2::base_channel</text>
<text text-anchor="start" x="255" y="-108.5" font-family="Helvetica,sans-Serif" font-size="10.00">&lt; TDevice, TChar, IsIn,</text>
<text text-anchor="middle" x="311" y="-97.5" font-family="Helvetica,sans-Serif" font-size="10.00"> IsOut &gt;</text>
</a>
</g>
</g>
<!-- Node14&#45;&gt;Node13 -->
<g id="edge13_Node000013_Node000014" class="edge">
<title>Node14&#45;&gt;Node13</title>
<g id="a_edge13_Node000013_Node000014"><a xlink:title=" ">
<path fill="none" stroke="#63b8ff" d="M385.31,-111C401.93,-111 419.47,-111 435.76,-111"/>
<polygon fill="#63b8ff" stroke="#63b8ff" points="385.1,-107.5 375.1,-111 385.1,-114.5 385.1,-107.5"/>
</a>
</g>
</g>
<!-- Node15 -->
<g id="Node000015" class="node">
<title>Node15</title>
<g id="a_Node000015"><a xlink:href="classIOv2_1_1locale.html" target="_top" xlink:title=" ">
<polygon fill="white" stroke="#666666" points="556,-78 449,-78 449,-48 556,-48 556,-78"/>
<text text-anchor="start" x="457" y="-66" font-family="Helvetica,sans-Serif" font-size="10.00">IOv2::locale&lt; char</text>
<text text-anchor="middle" x="502.5" y="-55" font-family="Helvetica,sans-Serif" font-size="10.00">_type &gt;</text>
</a>
</g>
</g>
<!-- Node15&#45;&gt;Node1 -->
<g id="edge14_Node000001_Node000015" class="edge">
<title>Node15&#45;&gt;Node1</title>
<g id="a_edge14_Node000001_Node000015"><a xlink:title=" ">
<path fill="none" stroke="#9a32cd" stroke-dasharray="5,2" d="M566.15,-72.54C605.52,-79.77 656.84,-91.5 700,-109 719.28,-116.82 739.4,-129.15 753.95,-138.94"/>
<polygon fill="#9a32cd" stroke="#9a32cd" points="566.62,-69.07 556.16,-70.75 565.38,-75.96 566.62,-69.07"/>
</a>
</g>
<text text-anchor="middle" x="653" y="-112" font-family="Helvetica,sans-Serif" font-size="10.00" fill="grey"> m_locale</text>
</g>
<!-- Node16 -->
<g id="Node000016" class="node">
<title>Node16</title>
<g id="a_Node000016"><a xlink:href="classIOv2_1_1copyable__atomic.html" target="_top" xlink:title=" ">
<polygon fill="white" stroke="#666666" points="566.5,-30 438.5,-30 438.5,0 566.5,0 566.5,-30"/>
<text text-anchor="start" x="446.5" y="-18" font-family="Helvetica,sans-Serif" font-size="10.00">IOv2::copyable_atomic</text>
<text text-anchor="middle" x="502.5" y="-7" font-family="Helvetica,sans-Serif" font-size="10.00">&lt; bool &gt;</text>
</a>
</g>
</g>
<!-- Node16&#45;&gt;Node1 -->
<g id="edge15_Node000001_Node000016" class="edge">
<title>Node16&#45;&gt;Node1</title>
<g id="a_edge15_Node000001_Node000016"><a xlink:title=" ">
<path fill="none" stroke="#9a32cd" stroke-dasharray="5,2" d="M576.85,-17.56C615.92,-21.84 663.35,-31.94 700,-55 733.03,-75.79 756.85,-116.67 767.97,-138.84"/>
<polygon fill="#9a32cd" stroke="#9a32cd" points="576.88,-14.05 566.59,-16.55 576.19,-21.01 576.88,-14.05"/>
</a>
</g>
<text text-anchor="middle" x="653" y="-69" font-family="Helvetica,sans-Serif" font-size="10.00" fill="grey"> m_exited</text>
<text text-anchor="middle" x="653" y="-58" font-family="Helvetica,sans-Serif" font-size="10.00" fill="grey">m_sync_with_stdio</text>
</g>
</g>
</svg>
