<?xml version="1.0" encoding="UTF-8" standalone="no"?>
<!DOCTYPE svg PUBLIC "-//W3C//DTD SVG 1.1//EN"
 "http://www.w3.org/Graphics/SVG/1.1/DTD/svg11.dtd">
<!-- Generated by graphviz version 2.43.0 (0)
 -->
<!-- Title: IOv2::tie_target Pages: 1 -->
<svg width="610pt" height="642pt"
 viewBox="0.00 0.00 610.00 642.00" xmlns="http://www.w3.org/2000/svg" xmlns:xlink="http://www.w3.org/1999/xlink">
<g id="graph0" class="graph" transform="scale(1 1) rotate(0) translate(4 638)">
<title>IOv2::tie_target</title>
<!-- Node1 -->
<g id="Node000001" class="node">
<title>Node1</title>
<g id="a_Node000001"><a xlink:title="承载多态 try_flush() 接口的抽象基类。">
<polygon fill="#999999" stroke="#666666" points="92,-424.5 0,-424.5 0,-405.5 92,-405.5 92,-424.5"/>
<text text-anchor="middle" x="46" y="-412.5" font-family="Helvetica,sans-Serif" font-size="10.00">IOv2::tie_target</text>
</a>
</g>
</g>
<!-- Node2 -->
<g id="Node000002" class="node">
<title>Node2</title>
<g id="a_Node000002"><a xlink:href="structIOv2_1_1out__tie__target.html" target="_top" xlink:title=" ">
<polygon fill="white" stroke="#666666" points="272.5,-634 159.5,-634 159.5,-604 272.5,-604 272.5,-634"/>
<text text-anchor="start" x="167.5" y="-622" font-family="Helvetica,sans-Serif" font-size="10.00">IOv2::out_tie_target</text>
<text text-anchor="middle" x="216" y="-611" font-family="Helvetica,sans-Serif" font-size="10.00">&lt; cerr_t &gt;</text>
</a>
</g>
</g>
<!-- Node1&#45;&gt;Node2 -->
<g id="edge1_Node000001_Node000002" class="edge">
<title>Node1&#45;&gt;Node2</title>
<g id="a_edge1_Node000001_Node000002"><a xlink:title=" ">
<path fill="none" stroke="#63b8ff" d="M50.17,-434.5C57.24,-471.48 77.77,-551.95 128,-595 136.92,-602.65 148.08,-607.87 159.41,-611.44"/>
<polygon fill="#63b8ff" stroke="#63b8ff" points="53.59,-433.74 48.4,-424.51 46.7,-434.97 53.59,-433.74"/>
</a>
</g>
</g>
<!-- Node3 -->
<g id="Node000003" class="node">
<title>Node3</title>
<g id="a_Node000003"><a xlink:href="structIOv2_1_1out__tie__target.html" target="_top" xlink:title=" ">
<polygon fill="white" stroke="#666666" points="272.5,-586 159.5,-586 159.5,-556 272.5,-556 272.5,-586"/>
<text text-anchor="start" x="167.5" y="-574" font-family="Helvetica,sans-Serif" font-size="10.00">IOv2::out_tie_target</text>
<text text-anchor="middle" x="216" y="-563" font-family="Helvetica,sans-Serif" font-size="10.00">&lt; clog_t &gt;</text>
</a>
</g>
</g>
<!-- Node1&#45;&gt;Node3 -->
<g id="edge2_Node000001_Node000003" class="edge">
<title>Node1&#45;&gt;Node3</title>
<g id="a_edge2_Node000001_Node000003"><a xlink:title=" ">
<path fill="none" stroke="#63b8ff" d="M53.63,-434.45C64.51,-463.41 88.94,-517.62 128,-547 137.14,-553.87 148.14,-558.78 159.2,-562.28"/>
<polygon fill="#63b8ff" stroke="#63b8ff" points="56.8,-432.91 50.12,-424.68 50.21,-435.28 56.8,-432.91"/>
</a>
</g>
</g>
<!-- Node4 -->
<g id="Node000004" class="node">
<title>Node4</title>
<g id="a_Node000004"><a xlink:href="structIOv2_1_1out__tie__target.html" target="_top" xlink:title=" ">
<polygon fill="white" stroke="#666666" points="272.5,-538 159.5,-538 159.5,-508 272.5,-508 272.5,-538"/>
<text text-anchor="start" x="167.5" y="-526" font-family="Helvetica,sans-Serif" font-size="10.00">IOv2::out_tie_target</text>
<text text-anchor="middle" x="216" y="-515" font-family="Helvetica,sans-Serif" font-size="10.00">&lt; cout_t &gt;</text>
</a>
</g>
</g>
<!-- Node1&#45;&gt;Node4 -->
<g id="edge3_Node000001_Node000004" class="edge">
<title>Node1&#45;&gt;Node4</title>
<g id="a_edge3_Node000001_Node000004"><a xlink:title=" ">
<path fill="none" stroke="#63b8ff" d="M59.57,-432.86C73.96,-452 99.29,-481.93 128,-499 137.56,-504.68 148.51,-509.06 159.35,-512.42"/>
<polygon fill="#63b8ff" stroke="#63b8ff" points="62.31,-430.68 53.58,-424.67 56.66,-434.81 62.31,-430.68"/>
</a>
</g>
</g>
<!-- Node5 -->
<g id="Node000005" class="node">
<title>Node5</title>
<g id="a_Node000005"><a xlink:href="structIOv2_1_1out__tie__target.html" target="_top" xlink:title=" ">
<polygon fill="white" stroke="#666666" points="278.5,-489.5 153.5,-489.5 153.5,-448.5 278.5,-448.5 278.5,-489.5"/>
<text text-anchor="start" x="161.5" y="-477.5" font-family="Helvetica,sans-Serif" font-size="10.00">IOv2::out_tie_target</text>
<text text-anchor="start" x="161.5" y="-466.5" font-family="Helvetica,sans-Serif" font-size="10.00">&lt; iostream&lt; TDevice,</text>
<text text-anchor="middle" x="216" y="-455.5" font-family="Helvetica,sans-Serif" font-size="10.00"> TChar &gt; &gt;</text>
</a>
</g>
</g>
<!-- Node1&#45;&gt;Node5 -->
<g id="edge4_Node000001_Node000005" class="edge">
<title>Node1&#45;&gt;Node5</title>
<g id="a_edge4_Node000001_Node000005"><a xlink:title=" ">
<path fill="none" stroke="#63b8ff" d="M86.31,-427.64C106.24,-434.04 130.91,-441.97 153.3,-449.17"/>
<polygon fill="#63b8ff" stroke="#63b8ff" points="87.24,-424.26 76.65,-424.53 85.1,-430.92 87.24,-424.26"/>
</a>
</g>
</g>
<!-- Node7 -->
<g id="Node000007" class="node">
<title>Node7</title>
<g id="a_Node000007"><a xlink:href="structIOv2_1_1out__tie__target.html" target="_top" xlink:title=" ">
<polygon fill="white" stroke="#666666" points="304,-430 128,-430 128,-400 304,-400 304,-430"/>
<text text-anchor="start" x="136" y="-418" font-family="Helvetica,sans-Serif" font-size="10.00">IOv2::out_tie_target</text>
<text text-anchor="middle" x="216" y="-407" font-family="Helvetica,sans-Serif" font-size="10.00">&lt; ostream&lt; TDevice, TChar &gt; &gt;</text>
</a>
</g>
</g>
<!-- Node1&#45;&gt;Node7 -->
<g id="edge6_Node000001_Node000007" class="edge">
<title>Node1&#45;&gt;Node7</title>
<g id="a_edge6_Node000001_Node000007"><a xlink:title=" ">
<path fill="none" stroke="#63b8ff" d="M102.17,-415C110.38,-415 119.01,-415 127.68,-415"/>
<polygon fill="#63b8ff" stroke="#63b8ff" points="102.02,-411.5 92.02,-415 102.02,-418.5 102.02,-411.5"/>
</a>
</g>
</g>
<!-- Node9 -->
<g id="Node000009" class="node">
<title>Node9</title>
<g id="a_Node000009"><a xlink:href="structIOv2_1_1out__tie__target.html" target="_top" xlink:title=" ">
<polygon fill="white" stroke="#666666" points="272.5,-382 159.5,-382 159.5,-352 272.5,-352 272.5,-382"/>
<text text-anchor="start" x="167.5" y="-370" font-family="Helvetica,sans-Serif" font-size="10.00">IOv2::out_tie_target</text>
<text text-anchor="middle" x="216" y="-359" font-family="Helvetica,sans-Serif" font-size="10.00">&lt; wcerr_t &gt;</text>
</a>
</g>
</g>
<!-- Node1&#45;&gt;Node9 -->
<g id="edge8_Node000001_Node000009" class="edge">
<title>Node1&#45;&gt;Node9</title>
<g id="a_edge8_Node000001_Node000009"><a xlink:title=" ">
<path fill="none" stroke="#63b8ff" d="M88.69,-402.48C101.3,-398.74 115.2,-394.66 128,-391 138.24,-388.07 149.18,-385 159.73,-382.08"/>
<polygon fill="#63b8ff" stroke="#63b8ff" points="87.48,-399.19 78.89,-405.4 89.47,-405.9 87.48,-399.19"/>
</a>
</g>
</g>
<!-- Node10 -->
<g id="Node000010" class="node">
<title>Node10</title>
<g id="a_Node000010"><a xlink:href="structIOv2_1_1out__tie__target.html" target="_top" xlink:title=" ">
<polygon fill="white" stroke="#666666" points="272.5,-334 159.5,-334 159.5,-304 272.5,-304 272.5,-334"/>
<text text-anchor="start" x="167.5" y="-322" font-family="Helvetica,sans-Serif" font-size="10.00">IOv2::out_tie_target</text>
<text text-anchor="middle" x="216" y="-311" font-family="Helvetica,sans-Serif" font-size="10.00">&lt; wclog_t &gt;</text>
</a>
</g>
</g>
<!-- Node1&#45;&gt;Node10 -->
<g id="edge9_Node000001_Node000010" class="edge">
<title>Node1&#45;&gt;Node10</title>
<g id="a_edge9_Node000001_Node000010"><a xlink:title=" ">
<path fill="none" stroke="#63b8ff" d="M62.42,-397.26C77.56,-380.9 102.1,-357.08 128,-343 137.64,-337.76 148.51,-333.59 159.22,-330.3"/>
<polygon fill="#63b8ff" stroke="#63b8ff" points="59.5,-395.27 55.4,-405.04 64.7,-399.96 59.5,-395.27"/>
</a>
</g>
</g>
<!-- Node11 -->
<g id="Node000011" class="node">
<title>Node11</title>
<g id="a_Node000011"><a xlink:href="structIOv2_1_1out__tie__target.html" target="_top" xlink:title=" ">
<polygon fill="white" stroke="#666666" points="272.5,-286 159.5,-286 159.5,-256 272.5,-256 272.5,-286"/>
<text text-anchor="start" x="167.5" y="-274" font-family="Helvetica,sans-Serif" font-size="10.00">IOv2::out_tie_target</text>
<text text-anchor="middle" x="216" y="-263" font-family="Helvetica,sans-Serif" font-size="10.00">&lt; wcout_t &gt;</text>
</a>
</g>
</g>
<!-- Node1&#45;&gt;Node11 -->
<g id="edge10_Node000001_Node000011" class="edge">
<title>Node1&#45;&gt;Node11</title>
<g id="a_edge10_Node000001_Node000011"><a xlink:title=" ">
<path fill="none" stroke="#63b8ff" d="M54.79,-395.79C66.61,-369.1 91.6,-321.16 128,-295 137.29,-288.33 148.35,-283.51 159.43,-280.03"/>
<polygon fill="#63b8ff" stroke="#63b8ff" points="51.49,-394.62 50.79,-405.19 57.93,-397.36 51.49,-394.62"/>
</a>
</g>
</g>
<!-- Node12 -->
<g id="Node000012" class="node">
<title>Node12</title>
<g id="a_Node000012"><a xlink:href="structIOv2_1_1out__tie__target.html" target="_top" xlink:title="承载多态 try_flush() 的 CRTP 基类：对具体流类型 T 的向下转型集中于此。">
<polygon fill="white" stroke="#666666" points="287,-218.5 145,-218.5 145,-199.5 287,-199.5 287,-218.5"/>
<text text-anchor="middle" x="216" y="-206.5" font-family="Helvetica,sans-Serif" font-size="10.00">IOv2::out_tie_target&lt; T &gt;</text>
</a>
</g>
</g>
<!-- Node1&#45;&gt;Node12 -->
<g id="edge11_Node000001_Node000012" class="edge">
<title>Node1&#45;&gt;Node12</title>
<g id="a_edge11_Node000001_Node000012"><a xlink:title=" ">
<path fill="none" stroke="#63b8ff" d="M51.61,-395.49C60.66,-361.16 83.81,-289.57 128,-247 141.89,-233.62 161.25,-224.53 178.19,-218.61"/>
<polygon fill="#63b8ff" stroke="#63b8ff" points="48.2,-394.69 49.16,-405.25 54.99,-396.4 48.2,-394.69"/>
</a>
</g>
</g>
<!-- Node6 -->
<g id="Node000006" class="node">
<title>Node6</title>
<g id="a_Node000006"><a xlink:href="classIOv2_1_1iostream.html" target="_top" xlink:title="双向字符流：把一条 iochannel 与一个 locale 组合成带格式化的输入输出接口。">
<polygon fill="white" stroke="#666666" points="483,-484 340,-484 340,-454 483,-454 483,-484"/>
<text text-anchor="start" x="348" y="-472" font-family="Helvetica,sans-Serif" font-size="10.00">IOv2::iostream&lt; TDevice,</text>
<text text-anchor="middle" x="411.5" y="-461" font-family="Helvetica,sans-Serif" font-size="10.00"> TChar &gt;</text>
</a>
</g>
</g>
<!-- Node5&#45;&gt;Node6 -->
<g id="edge5_Node000005_Node000006" class="edge">
<title>Node5&#45;&gt;Node6</title>
<g id="a_edge5_Node000005_Node000006"><a xlink:title=" ">
<path fill="none" stroke="#63b8ff" d="M288.97,-469C305.62,-469 323.32,-469 339.91,-469"/>
<polygon fill="#63b8ff" stroke="#63b8ff" points="288.76,-465.5 278.76,-469 288.76,-472.5 288.76,-465.5"/>
</a>
</g>
</g>
<!-- Node8 -->
<g id="Node000008" class="node">
<title>Node8</title>
<g id="a_Node000008"><a xlink:href="classIOv2_1_1ostream.html" target="_top" xlink:title="字符输出流：把一条 ochannel 与一个 locale 组合成带格式化的输出接口。">
<polygon fill="white" stroke="#666666" points="481.5,-433 341.5,-433 341.5,-403 481.5,-403 481.5,-433"/>
<text text-anchor="start" x="349.5" y="-421" font-family="Helvetica,sans-Serif" font-size="10.00">IOv2::ostream&lt; TDevice,</text>
<text text-anchor="middle" x="411.5" y="-410" font-family="Helvetica,sans-Serif" font-size="10.00"> TChar &gt;</text>
</a>
</g>
</g>
<!-- Node7&#45;&gt;Node8 -->
<g id="edge7_Node000007_Node000008" class="edge">
<title>Node7&#45;&gt;Node8</title>
<g id="a_edge7_Node000007_Node000008"><a xlink:title=" ">
<path fill="none" stroke="#63b8ff" d="M314.36,-416.51C323.44,-416.65 332.51,-416.79 341.25,-416.93"/>
<polygon fill="#63b8ff" stroke="#63b8ff" points="314.18,-413.01 304.13,-416.35 314.07,-420.01 314.18,-413.01"/>
</a>
</g>
</g>
<!-- Node13 -->
<g id="Node000013" class="node">
<title>Node13</title>
<g id="a_Node000013"><a xlink:href="classIOv2_1_1stdout__api.html" target="_top" xlink:title=" ">
<polygon fill="white" stroke="#666666" points="478.5,-384.5 344.5,-384.5 344.5,-343.5 478.5,-343.5 478.5,-384.5"/>
<text text-anchor="start" x="352.5" y="-372.5" font-family="Helvetica,sans-Serif" font-size="10.00">IOv2::stdout_api&lt; cerr</text>
<text text-anchor="start" x="352.5" y="-361.5" font-family="Helvetica,sans-Serif" font-size="10.00">_t, std_device&lt; STDERR</text>
<text text-anchor="middle" x="411.5" y="-350.5" font-family="Helvetica,sans-Serif" font-size="10.00">_FILENO &gt;, char &gt;</text>
</a>
</g>
</g>
<!-- Node12&#45;&gt;Node13 -->
<g id="edge12_Node000012_Node000013" class="edge">
<title>Node12&#45;&gt;Node13</title>
<g id="a_edge12_Node000012_Node000013"><a xlink:title=" ">
<path fill="none" stroke="#63b8ff" d="M264.67,-222.18C278.74,-227.95 293.24,-235.98 304,-247 333.53,-277.23 310.15,-305.09 340,-335 343.09,-338.09 346.55,-340.87 350.24,-343.36"/>
<polygon fill="#63b8ff" stroke="#63b8ff" points="265.64,-218.81 255.05,-218.54 263.17,-225.35 265.64,-218.81"/>
</a>
</g>
</g>
<!-- Node15 -->
<g id="Node000015" class="node">
<title>Node15</title>
<g id="a_Node000015"><a xlink:href="classIOv2_1_1stdout__api.html" target="_top" xlink:title=" ">
<polygon fill="white" stroke="#666666" points="478.5,-325.5 344.5,-325.5 344.5,-284.5 478.5,-284.5 478.5,-325.5"/>
<text text-anchor="start" x="352.5" y="-313.5" font-family="Helvetica,sans-Serif" font-size="10.00">IOv2::stdout_api&lt; clog</text>
<text text-anchor="start" x="352.5" y="-302.5" font-family="Helvetica,sans-Serif" font-size="10.00">_t, std_device&lt; STDERR</text>
<text text-anchor="middle" x="411.5" y="-291.5" font-family="Helvetica,sans-Serif" font-size="10.00">_FILENO &gt;, char &gt;</text>
</a>
</g>
</g>
<!-- Node12&#45;&gt;Node15 -->
<g id="edge14_Node000012_Node000015" class="edge">
<title>Node12&#45;&gt;Node15</title>
<g id="a_edge14_Node000012_Node000015"><a xlink:title=" ">
<path fill="none" stroke="#63b8ff" d="M253.36,-222.35C269.38,-228.87 288.13,-237.38 304,-247 321.57,-257.65 322.32,-265.54 340,-276 345.01,-278.96 350.38,-281.77 355.84,-284.38"/>
<polygon fill="#63b8ff" stroke="#63b8ff" points="254.38,-218.99 243.79,-218.56 251.8,-225.5 254.38,-218.99"/>
</a>
</g>
</g>
<!-- Node17 -->
<g id="Node000017" class="node">
<title>Node17</title>
<g id="a_Node000017"><a xlink:href="classIOv2_1_1stdout__api.html" target="_top" xlink:title=" ">
<polygon fill="white" stroke="#666666" points="479.5,-266.5 343.5,-266.5 343.5,-225.5 479.5,-225.5 479.5,-266.5"/>
<text text-anchor="start" x="351.5" y="-254.5" font-family="Helvetica,sans-Serif" font-size="10.00">IOv2::stdout_api&lt; cout</text>
<text text-anchor="start" x="351.5" y="-243.5" font-family="Helvetica,sans-Serif" font-size="10.00">_t, std_device&lt; STDOUT</text>
<text text-anchor="middle" x="411.5" y="-232.5" font-family="Helvetica,sans-Serif" font-size="10.00">_FILENO &gt;, char &gt;</text>
</a>
</g>
</g>
<!-- Node12&#45;&gt;Node17 -->
<g id="edge16_Node000012_Node000017" class="edge">
<title>Node12&#45;&gt;Node17</title>
<g id="a_edge16_Node000012_Node000017"><a xlink:title=" ">
<path fill="none" stroke="#63b8ff" d="M276.92,-220.46C297.96,-224.48 321.73,-229.03 343.33,-233.16"/>
<polygon fill="#63b8ff" stroke="#63b8ff" points="277.31,-216.97 266.83,-218.53 276,-223.84 277.31,-216.97"/>
</a>
</g>
</g>
<!-- Node19 -->
<g id="Node000019" class="node">
<title>Node19</title>
<g id="a_Node000019"><a xlink:href="classIOv2_1_1stdout__api.html" target="_top" xlink:title=" ">
<polygon fill="white" stroke="#666666" points="478.5,-207.5 344.5,-207.5 344.5,-166.5 478.5,-166.5 478.5,-207.5"/>
<text text-anchor="start" x="352.5" y="-195.5" font-family="Helvetica,sans-Serif" font-size="10.00">IOv2::stdout_api&lt; wcerr</text>
<text text-anchor="start" x="352.5" y="-184.5" font-family="Helvetica,sans-Serif" font-size="10.00">_t, std_device&lt; STDERR</text>
<text text-anchor="middle" x="411.5" y="-173.5" font-family="Helvetica,sans-Serif" font-size="10.00">_FILENO &gt;, wchar_t &gt;</text>
</a>
</g>
</g>
<!-- Node12&#45;&gt;Node19 -->
<g id="edge18_Node000012_Node000019" class="edge">
<title>Node12&#45;&gt;Node19</title>
<g id="a_edge18_Node000012_Node000019"><a xlink:title=" ">
<path fill="none" stroke="#63b8ff" d="M297.34,-199.87C313.03,-198.08 329.32,-196.23 344.48,-194.51"/>
<polygon fill="#63b8ff" stroke="#63b8ff" points="296.67,-196.42 287.13,-201.03 297.46,-203.37 296.67,-196.42"/>
</a>
</g>
</g>
<!-- Node21 -->
<g id="Node000021" class="node">
<title>Node21</title>
<g id="a_Node000021"><a xlink:href="classIOv2_1_1stdout__api.html" target="_top" xlink:title=" ">
<polygon fill="white" stroke="#666666" points="479.5,-148.5 343.5,-148.5 343.5,-107.5 479.5,-107.5 479.5,-148.5"/>
<text text-anchor="start" x="351.5" y="-136.5" font-family="Helvetica,sans-Serif" font-size="10.00">IOv2::stdout_api&lt; wclog</text>
<text text-anchor="start" x="351.5" y="-125.5" font-family="Helvetica,sans-Serif" font-size="10.00">_t, std_device&lt; STDERR</text>
<text text-anchor="middle" x="411.5" y="-114.5" font-family="Helvetica,sans-Serif" font-size="10.00">_FILENO &gt;, wchar_t &gt;</text>
</a>
</g>
</g>
<!-- Node12&#45;&gt;Node21 -->
<g id="edge20_Node000012_Node000021" class="edge">
<title>Node12&#45;&gt;Node21</title>
<g id="a_edge20_Node000012_Node000021"><a xlink:title=" ">
<path fill="none" stroke="#63b8ff" d="M249.29,-195.48C279.84,-182.7 326.12,-163.32 361.27,-148.61"/>
<polygon fill="#63b8ff" stroke="#63b8ff" points="247.83,-192.3 239.96,-199.39 250.53,-198.76 247.83,-192.3"/>
</a>
</g>
</g>
<!-- Node23 -->
<g id="Node000023" class="node">
<title>Node23</title>
<g id="a_Node000023"><a xlink:href="classIOv2_1_1stdout__api.html" target="_top" xlink:title=" ">
<polygon fill="white" stroke="#666666" points="480,-89.5 343,-89.5 343,-48.5 480,-48.5 480,-89.5"/>
<text text-anchor="start" x="351" y="-77.5" font-family="Helvetica,sans-Serif" font-size="10.00">IOv2::stdout_api&lt; wcout</text>
<text text-anchor="start" x="351" y="-66.5" font-family="Helvetica,sans-Serif" font-size="10.00">_t, std_device&lt; STDOUT</text>
<text text-anchor="middle" x="411.5" y="-55.5" font-family="Helvetica,sans-Serif" font-size="10.00">_FILENO &gt;, wchar_t &gt;</text>
</a>
</g>
</g>
<!-- Node12&#45;&gt;Node23 -->
<g id="edge22_Node000012_Node000023" class="edge">
<title>Node12&#45;&gt;Node23</title>
<g id="a_edge22_Node000012_Node000023"><a xlink:title=" ">
<path fill="none" stroke="#63b8ff" d="M232.23,-191.97C254.13,-168.3 296.68,-125.29 340,-98 344.81,-94.97 350,-92.13 355.3,-89.52"/>
<polygon fill="#63b8ff" stroke="#63b8ff" points="229.53,-189.73 225.38,-199.48 234.7,-194.45 229.53,-189.73"/>
</a>
</g>
</g>
<!-- Node25 -->
<g id="Node000025" class="node">
<title>Node25</title>
<g id="a_Node000025"><a xlink:href="classIOv2_1_1stdout__api.html" target="_top" xlink:title=" ">
<polygon fill="white" stroke="#666666" points="469.5,-30 353.5,-30 353.5,0 469.5,0 469.5,-30"/>
<text text-anchor="start" x="361.5" y="-18" font-family="Helvetica,sans-Serif" font-size="10.00">IOv2::stdout_api&lt; T,</text>
<text text-anchor="middle" x="411.5" y="-7" font-family="Helvetica,sans-Serif" font-size="10.00"> TDevice, TChar &gt;</text>
</a>
</g>
</g>
<!-- Node12&#45;&gt;Node25 -->
<g id="edge24_Node000012_Node000025" class="edge">
<title>Node12&#45;&gt;Node25</title>
<g id="a_edge24_Node000012_Node000025"><a xlink:title=" ">
<path fill="none" stroke="#63b8ff" d="M225.66,-190.25C242.67,-155.44 283.73,-80.57 340,-39 344.58,-35.62 349.66,-32.69 354.95,-30.16"/>
<polygon fill="#63b8ff" stroke="#63b8ff" points="222.48,-188.79 221.33,-199.32 228.8,-191.8 222.48,-188.79"/>
</a>
</g>
</g>
<!-- Node14 -->
<g id="Node000014" class="node">
<title>Node14</title>
<g id="a_Node000014"><a xlink:href="classIOv2_1_1cerr__t.html" target="_top" xlink:title="cerr">
<polygon fill="white" stroke="#666666" points="597,-373.5 524,-373.5 524,-354.5 597,-354.5 597,-373.5"/>
<text text-anchor="middle" x="560.5" y="-361.5" font-family="Helvetica,sans-Serif" font-size="10.00">IOv2::cerr_t</text>
</a>
</g>
</g>
<!-- Node13&#45;&gt;Node14 -->
<g id="edge13_Node000013_Node000014" class="edge">
<title>Node13&#45;&gt;Node14</title>
<g id="a_edge13_Node000013_Node000014"><a xlink:title=" ">
<path fill="none" stroke="#63b8ff" d="M488.93,-364C501.12,-364 513.2,-364 523.83,-364"/>
<polygon fill="#63b8ff" stroke="#63b8ff" points="488.69,-360.5 478.69,-364 488.69,-367.5 488.69,-360.5"/>
</a>
</g>
</g>
<!-- Node16 -->
<g id="Node000016" class="node">
<title>Node16</title>
<g id="a_Node000016"><a xlink:href="classIOv2_1_1clog__t.html" target="_top" xlink:title="clog">
<polygon fill="white" stroke="#666666" points="597.5,-314.5 523.5,-314.5 523.5,-295.5 597.5,-295.5 597.5,-314.5"/>
<text text-anchor="middle" x="560.5" y="-302.5" font-family="Helvetica,sans-Serif" font-size="10.00">IOv2::clog_t</text>
</a>
</g>
</g>
<!-- Node15&#45;&gt;Node16 -->
<g id="edge15_Node000015_Node000016" class="edge">
<title>Node15&#45;&gt;Node16</title>
<g id="a_edge15_Node000015_Node000016"><a xlink:title=" ">
<path fill="none" stroke="#63b8ff" d="M488.82,-305C500.9,-305 512.87,-305 523.43,-305"/>
<polygon fill="#63b8ff" stroke="#63b8ff" points="488.69,-301.5 478.69,-305 488.69,-308.5 488.69,-301.5"/>
</a>
</g>
</g>
<!-- Node18 -->
<g id="Node000018" class="node">
<title>Node18</title>
<g id="a_Node000018"><a xlink:href="classIOv2_1_1cout__t.html" target="_top" xlink:title="cout">
<polygon fill="white" stroke="#666666" points="598,-255.5 523,-255.5 523,-236.5 598,-236.5 598,-255.5"/>
<text text-anchor="middle" x="560.5" y="-243.5" font-family="Helvetica,sans-Serif" font-size="10.00">IOv2::cout_t</text>
</a>
</g>
</g>
<!-- Node17&#45;&gt;Node18 -->
<g id="edge17_Node000017_Node000018" class="edge">
<title>Node17&#45;&gt;Node18</title>
<g id="a_edge17_Node000017_Node000018"><a xlink:title=" ">
<path fill="none" stroke="#63b8ff" d="M489.66,-246C501.17,-246 512.55,-246 522.69,-246"/>
<polygon fill="#63b8ff" stroke="#63b8ff" points="489.55,-242.5 479.55,-246 489.55,-249.5 489.55,-242.5"/>
</a>
</g>
</g>
<!-- Node20 -->
<g id="Node000020" class="node">
<title>Node20</title>
<g id="a_Node000020"><a xlink:href="classIOv2_1_1wcerr__t.html" target="_top" xlink:title="wcerr">
<polygon fill="white" stroke="#666666" points="601,-196.5 520,-196.5 520,-177.5 601,-177.5 601,-196.5"/>
<text text-anchor="middle" x="560.5" y="-184.5" font-family="Helvetica,sans-Serif" font-size="10.00">IOv2::wcerr_t</text>
</a>
</g>
</g>
<!-- Node19&#45;&gt;Node20 -->
<g id="edge19_Node000019_Node000020" class="edge">
<title>Node19&#45;&gt;Node20</title>
<g id="a_edge19_Node000019_Node000020"><a xlink:title=" ">
<path fill="none" stroke="#63b8ff" d="M488.91,-187C499.58,-187 510.16,-187 519.76,-187"/>
<polygon fill="#63b8ff" stroke="#63b8ff" points="488.69,-183.5 478.69,-187 488.69,-190.5 488.69,-183.5"/>
</a>
</g>
</g>
<!-- Node22 -->
<g id="Node000022" class="node">
<title>Node22</title>
<g id="a_Node000022"><a xlink:href="classIOv2_1_1wclog__t.html" target="_top" xlink:title="wclog">
<polygon fill="white" stroke="#666666" points="602,-137.5 519,-137.5 519,-118.5 602,-118.5 602,-137.5"/>
<text text-anchor="middle" x="560.5" y="-125.5" font-family="Helvetica,sans-Serif" font-size="10.00">IOv2::wclog_t</text>
</a>
</g>
</g>
<!-- Node21&#45;&gt;Node22 -->
<g id="edge21_Node000021_Node000022" class="edge">
<title>Node21&#45;&gt;Node22</title>
<g id="a_edge21_Node000021_Node000022"><a xlink:title=" ">
<path fill="none" stroke="#63b8ff" d="M489.57,-128C499.59,-128 509.52,-128 518.61,-128"/>
<polygon fill="#63b8ff" stroke="#63b8ff" points="489.55,-124.5 479.55,-128 489.55,-131.5 489.55,-124.5"/>
</a>
</g>
</g>
<!-- Node24 -->
<g id="Node000024" class="node">
<title>Node24</title>
<g id="a_Node000024"><a xlink:href="classIOv2_1_1wcout__t.html" target="_top" xlink:title="wcout">
<polygon fill="white" stroke="#666666" points="602,-78.5 519,-78.5 519,-59.5 602,-59.5 602,-78.5"/>
<text text-anchor="middle" x="560.5" y="-66.5" font-family="Helvetica,sans-Serif" font-size="10.00">IOv2::wcout_t</text>
</a>
</g>
</g>
<!-- Node23&#45;&gt;Node24 -->
<g id="edge23_Node000023_Node000024" class="edge">
<title>Node23&#45;&gt;Node24</title>
<g id="a_edge23_Node000023_Node000024"><a xlink:title=" ">
<path fill="none" stroke="#63b8ff" d="M490.55,-69C500.27,-69 509.89,-69 518.72,-69"/>
<polygon fill="#63b8ff" stroke="#63b8ff" points="490.41,-65.5 480.41,-69 490.41,-72.5 490.41,-65.5"/>
</a>
</g>
</g>
</g>
</svg>
