<?xml version="1.0" encoding="UTF-8" standalone="no"?>
<!DOCTYPE svg PUBLIC "-//W3C//DTD SVG 1.1//EN"
 "http://www.w3.org/Graphics/SVG/1.1/DTD/svg11.dtd">
<!-- Generated by graphviz version 2.43.0 (0)
 -->
<!-- Title: IOv2::ctype&lt; CharT &gt; Pages: 1 -->
<svg width="148pt" height="93pt"
 viewBox="0.00 0.00 148.00 93.00" xmlns="http://www.w3.org/2000/svg" xmlns:xlink="http://www.w3.org/1999/xlink">
<g id="graph0" class="graph" transform="scale(1 1) rotate(0) translate(4 89)">
<title>IOv2::ctype&lt; CharT &gt;</title>
<!-- Node1 -->
<g id="Node000001" class="node">
<title>Node1</title>
<g id="a_Node000001"><a xlink:title=" ">
<polygon fill="#999999" stroke="#666666" points="131.5,-19 8.5,-19 8.5,0 131.5,0 131.5,-19"/>
<text text-anchor="middle" x="70" y="-7" font-family="Helvetica,sans-Serif" font-size="10.00">IOv2::ctype&lt; CharT &gt;</text>
</a>
</g>
</g>
<!-- Node2 -->
<g id="Node000002" class="node">
<title>Node2</title>
<g id="a_Node000002"><a xlink:href="classIOv2_1_1detail_1_1ctype__ops.html" target="_top" xlink:title=" ">
<polygon fill="white" stroke="#666666" points="140,-85 0,-85 0,-55 140,-55 140,-85"/>
<text text-anchor="start" x="8" y="-73" font-family="Helvetica,sans-Serif" font-size="10.00">IOv2::detail::ctype</text>
<text text-anchor="middle" x="70" y="-62" font-family="Helvetica,sans-Serif" font-size="10.00">_ops&lt; ctype&lt; CharT &gt; &gt;</text>
</a>
</g>
</g>
<!-- Node2&#45;&gt;Node1 -->
<g id="edge1_Node000001_Node000002" class="edge">
<title>Node2&#45;&gt;Node1</title>
<g id="a_edge1_Node000001_Node000002"><a xlink:title=" ">
<path fill="none" stroke="#63b8ff" d="M63.34,-44.75C63.02,-35.72 63.58,-26.03 65.02,-19.27"/>
<polygon fill="#63b8ff" stroke="#63b8ff" points="59.86,-45.14 64.12,-54.84 66.84,-44.6 59.86,-45.14"/>
</a>
</g>
</g>
<!-- Node2&#45;&gt;Node1 -->
<g id="edge2_Node000001_Node000002" class="edge">
<title>Node2&#45;&gt;Node1</title>
<g id="a_edge2_Node000001_Node000002"><a xlink:title=" ">
<path fill="none" stroke="#63b8ff" d="M76.66,-44.75C76.98,-35.72 76.42,-26.03 74.98,-19.27"/>
<polygon fill="#63b8ff" stroke="#63b8ff" points="73.16,-44.6 75.88,-54.84 80.14,-45.14 73.16,-44.6"/>
</a>
</g>
</g>
</g>
</svg>
