<?xml version="1.0" encoding="UTF-8" standalone="no"?>
<!DOCTYPE svg PUBLIC "-//W3C//DTD SVG 1.1//EN"
 "http://www.w3.org/Graphics/SVG/1.1/DTD/svg11.dtd">
<!-- Generated by graphviz version 2.43.0 (0)
 -->
<!-- Title: 类继承关系图 Pages: 1 -->
<svg width="295pt" height="236pt"
 viewBox="0.00 0.00 295.00 235.50" xmlns="http://www.w3.org/2000/svg" xmlns:xlink="http://www.w3.org/1999/xlink">
<g id="graph0" class="graph" transform="scale(1 1) rotate(0) translate(4 231.5)">
<title>类继承关系图</title>
<!-- Node0 -->
<g id="Node000000" class="node">
<title>Node0</title>
<g id="a_Node000000"><a xlink:href="structIOv2_1_1cvt__behavior.html" target="_top" xlink:title=" ">
<polygon fill="white" stroke="#666666" points="108,-142 0,-142 0,-123 108,-123 108,-142"/>
<text text-anchor="middle" x="54" y="-130" font-family="Helvetica,sans-Serif" font-size="10.00">IOv2::cvt_behavior</text>
</a>
</g>
</g>
<!-- Node1 -->
<g id="Node000001" class="node">
<title>Node1</title>
<g id="a_Node000001"><a xlink:href="structIOv2_1_1Comp_1_1zlib__sync__flush.html" target="_top" xlink:title=" ">
<polygon fill="white" stroke="#666666" points="278,-227.5 153,-227.5 153,-197.5 278,-197.5 278,-227.5"/>
<text text-anchor="start" x="161" y="-215.5" font-family="Helvetica,sans-Serif" font-size="10.00">IOv2::Comp::zlib_sync</text>
<text text-anchor="middle" x="215.5" y="-204.5" font-family="Helvetica,sans-Serif" font-size="10.00">_flush</text>
</a>
</g>
</g>
<!-- Node0&#45;&gt;Node1 -->
<g id="edge104_Node000000_Node000001" class="edge">
<title>Node0&#45;&gt;Node1</title>
<g id="a_edge104_Node000000_Node000001"><a xlink:title=" ">
<path fill="none" stroke="#63b8ff" d="M76.38,-147.95C93.91,-160.13 119.72,-176.93 144,-188.5 150.77,-191.73 158.09,-194.72 165.36,-197.43"/>
<polygon fill="#63b8ff" stroke="#63b8ff" points="78.2,-144.96 68.01,-142.06 74.17,-150.68 78.2,-144.96"/>
</a>
</g>
</g>
<!-- Node2 -->
<g id="Node000002" class="node">
<title>Node2</title>
<g id="a_Node000002"><a xlink:href="structIOv2_1_1Crypt_1_1dump__hash.html" target="_top" xlink:title=" ">
<polygon fill="white" stroke="#666666" points="282.5,-179 148.5,-179 148.5,-160 282.5,-160 282.5,-179"/>
<text text-anchor="middle" x="215.5" y="-167" font-family="Helvetica,sans-Serif" font-size="10.00">IOv2::Crypt::dump_hash</text>
</a>
</g>
</g>
<!-- Node0&#45;&gt;Node2 -->
<g id="edge105_Node000000_Node000002" class="edge">
<title>Node0&#45;&gt;Node2</title>
<g id="a_edge105_Node000000_Node000002"><a xlink:title=" ">
<path fill="none" stroke="#63b8ff" d="M105.82,-144.29C127.59,-149.34 152.7,-155.16 173.29,-159.94"/>
<polygon fill="#63b8ff" stroke="#63b8ff" points="106.61,-140.88 96.08,-142.03 105.03,-147.7 106.61,-140.88"/>
</a>
</g>
</g>
<!-- Node3 -->
<g id="Node000003" class="node">
<title>Node3</title>
<g id="a_Node000003"><a xlink:href="structIOv2_1_1Crypt_1_1set__hash__fmt.html" target="_top" xlink:title=" ">
<polygon fill="white" stroke="#666666" points="287,-142 144,-142 144,-123 287,-123 287,-142"/>
<text text-anchor="middle" x="215.5" y="-130" font-family="Helvetica,sans-Serif" font-size="10.00">IOv2::Crypt::set_hash_fmt</text>
</a>
</g>
</g>
<!-- Node0&#45;&gt;Node3 -->
<g id="edge106_Node000000_Node000003" class="edge">
<title>Node0&#45;&gt;Node3</title>
<g id="a_edge106_Node000000_Node000003"><a xlink:title=" ">
<path fill="none" stroke="#63b8ff" d="M118.19,-132.5C126.58,-132.5 135.23,-132.5 143.74,-132.5"/>
<polygon fill="#63b8ff" stroke="#63b8ff" points="118.11,-129 108.11,-132.5 118.11,-136 118.11,-129"/>
</a>
</g>
</g>
<!-- Node4 -->
<g id="Node000004" class="node">
<title>Node4</title>
<g id="a_Node000004"><a xlink:href="structIOv2_1_1code__cvt__stdio__state.html" target="_top" xlink:title=" ">
<polygon fill="white" stroke="#666666" points="274.5,-67.5 156.5,-67.5 156.5,-37.5 274.5,-37.5 274.5,-67.5"/>
<text text-anchor="start" x="164.5" y="-55.5" font-family="Helvetica,sans-Serif" font-size="10.00">IOv2::code_cvt_stdio</text>
<text text-anchor="middle" x="215.5" y="-44.5" font-family="Helvetica,sans-Serif" font-size="10.00">_state</text>
</a>
</g>
</g>
<!-- Node0&#45;&gt;Node4 -->
<g id="edge107_Node000000_Node000004" class="edge">
<title>Node0&#45;&gt;Node4</title>
<g id="a_edge107_Node000000_Node000004"><a xlink:title=" ">
<path fill="none" stroke="#63b8ff" d="M76.76,-117.23C94.34,-105.35 120.01,-89 144,-77.5 151.49,-73.91 159.65,-70.55 167.66,-67.53"/>
<polygon fill="#63b8ff" stroke="#63b8ff" points="74.63,-114.45 68.36,-122.98 78.59,-120.22 74.63,-114.45"/>
</a>
</g>
</g>
<!-- Node7 -->
<g id="Node000007" class="node">
<title>Node7</title>
<g id="a_Node000007"><a xlink:href="structIOv2_1_1code__cvt__switch.html" target="_top" xlink:title=" ">
<polygon fill="white" stroke="#666666" points="278,-105 153,-105 153,-86 278,-86 278,-105"/>
<text text-anchor="middle" x="215.5" y="-93" font-family="Helvetica,sans-Serif" font-size="10.00">IOv2::code_cvt_switch</text>
</a>
</g>
</g>
<!-- Node0&#45;&gt;Node7 -->
<g id="edge108_Node000000_Node000007" class="edge">
<title>Node0&#45;&gt;Node7</title>
<g id="a_edge108_Node000000_Node000007"><a xlink:title=" ">
<path fill="none" stroke="#63b8ff" d="M105.82,-120.71C127.59,-115.66 152.7,-109.84 173.29,-105.06"/>
<polygon fill="#63b8ff" stroke="#63b8ff" points="105.03,-117.3 96.08,-122.97 106.61,-124.12 105.03,-117.3"/>
</a>
</g>
</g>
<!-- Node5 -->
<g id="Node000005" class="node">
<title>Node5</title>
<g id="a_Node000005"><a xlink:href="structIOv2_1_1cvt__status.html" target="_top" xlink:title=" ">
<polygon fill="white" stroke="#666666" points="101.5,-41 6.5,-41 6.5,-22 101.5,-22 101.5,-41"/>
<text text-anchor="middle" x="54" y="-29" font-family="Helvetica,sans-Serif" font-size="10.00">IOv2::cvt_status</text>
</a>
</g>
</g>
<!-- Node5&#45;&gt;Node4 -->
<g id="edge110_Node000005_Node000004" class="edge">
<title>Node5&#45;&gt;Node4</title>
<g id="a_edge110_Node000005_Node000004"><a xlink:title=" ">
<path fill="none" stroke="#63b8ff" d="M111.84,-38.98C126.25,-40.88 141.76,-42.92 156.25,-44.83"/>
<polygon fill="#63b8ff" stroke="#63b8ff" points="111.93,-35.47 101.56,-37.63 111.02,-42.41 111.93,-35.47"/>
</a>
</g>
</g>
<!-- Node6 -->
<g id="Node000006" class="node">
<title>Node6</title>
<g id="a_Node000006"><a xlink:href="structIOv2_1_1code__cvt__access.html" target="_top" xlink:title=" ">
<polygon fill="white" stroke="#666666" points="279,-19 152,-19 152,0 279,0 279,-19"/>
<text text-anchor="middle" x="215.5" y="-7" font-family="Helvetica,sans-Serif" font-size="10.00">IOv2::code_cvt_access</text>
</a>
</g>
</g>
<!-- Node5&#45;&gt;Node6 -->
<g id="edge109_Node000005_Node000006" class="edge">
<title>Node5&#45;&gt;Node6</title>
<g id="a_edge109_Node000005_Node000006"><a xlink:title=" ">
<path fill="none" stroke="#63b8ff" d="M111.76,-23.67C124.76,-21.88 138.64,-19.96 151.86,-18.14"/>
<polygon fill="#63b8ff" stroke="#63b8ff" points="110.99,-20.24 101.56,-25.08 111.95,-27.18 110.99,-20.24"/>
</a>
</g>
</g>
</g>
</svg>
